<?xml version="1.0" encoding="UTF-8" standalone="no"?>
<svg
   xmlns:dc="http://purl.org/dc/elements/1.1/"
   xmlns:cc="http://creativecommons.org/ns#"
   xmlns:rdf="http://www.w3.org/1999/02/22-rdf-syntax-ns#"
   xmlns:svg="http://www.w3.org/2000/svg"
   xmlns="http://www.w3.org/2000/svg"
   xmlns:sodipodi="http://sodipodi.sourceforge.net/DTD/sodipodi-0.dtd"
   xmlns:inkscape="http://www.inkscape.org/namespaces/inkscape"
   version="1.1"
   id="Layer_1"
   x="0px"
   y="0px"
   viewBox="0 160.7 595.3 519.9"
   xml:space="preserve"
   sodipodi:docname="award_customer.svg"
   inkscape:version="1.0.1 (3bc2e813f5, 2020-09-07)"><metadata
   id="metadata1005"><rdf:RDF><cc:Work
       rdf:about=""><dc:format>image/svg+xml</dc:format><dc:type
         rdf:resource="http://purl.org/dc/dcmitype/StillImage" /><dc:title></dc:title></cc:Work></rdf:RDF></metadata><defs
   id="defs1003">
	
	
	
	
	
	
	
	
	
	
	
	
	
	
	
	
	
	
	
	
	
	
	
	
	
	
	
	
	
	
	
	
	
	
	
	
	
	
</defs><sodipodi:namedview
   pagecolor="#ffffff"
   bordercolor="#666666"
   borderopacity="1"
   objecttolerance="10"
   gridtolerance="10"
   guidetolerance="10"
   inkscape:pageopacity="0"
   inkscape:pageshadow="2"
   inkscape:window-width="1920"
   inkscape:window-height="1017"
   id="namedview1001"
   showgrid="false"
   inkscape:zoom="0.9051157"
   inkscape:cx="-61.868376"
   inkscape:cy="61.842756"
   inkscape:window-x="-8"
   inkscape:window-y="-8"
   inkscape:window-maximized="1"
   inkscape:current-layer="Layer_1"
   inkscape:document-rotation="0" />

<path
   id="path922"
   d="m 123.09961,160.7 c 0,0 -53.49961,68.79922 -5.09961,100.19922 0,0 39.09961,-42.49922 5.09961,-100.19922 z m 349,0 c -34,57.7 5.09961,100.19922 5.09961,100.19922 48.4,-31.4 -5.09961,-100.19922 -5.09961,-100.19922 z m -235.19922,7.69922 c -77.3,3.4 -75.59961,59.40039 -75.59961,59.40039 76.5,-0.9 75.59961,-59.50039 75.59961,-59.40039 z m 121.40039,0 c 0.1,-0.1 -1.60039,58.50039 75.59961,59.40039 0,0 1.70039,-56.00039 -75.59961,-59.40039 z M 65.400391,219.29961 c 0,0 -44.201172,62.80039 17.798828,93.40039 0,0 21.201171,-57.70039 -17.798828,-93.40039 z M 83.199219,312.7 c 45.000001,22.9 86.601561,-3.40039 86.601561,-3.40039 -45,-41.6 -86.601561,3.40039 -86.601561,3.40039 z M 529.90039,219.29961 c -39,35.7 -17.80078,93.40039 -17.80078,93.40039 61.1,-30.6 17.80078,-93.40039 17.80078,-93.40039 z M 512.09961,312.7 c 0,0 -41.59961,-45.00039 -86.59961,-3.40039 -0.1,0 40.69961,26.30039 86.59961,3.40039 z m -67.61523,-64.32227 c -13.16383,-0.13687 -29.76172,5.56055 -48.78516,24.62305 0,0 44.7,25.8 81.5,-10 0,0 -12.17928,-14.40953 -32.71484,-14.62305 z m -293.67969,0.0566 C 130.21748,248.65428 118,263.10039 118,263.10039 c 37,35.8 81.89922,10 81.69922,10 -19.0625,-19.10156 -35.69761,-24.80698 -48.89453,-24.66602 z M 20.400391,291.50078 c 0,-0.1 -21.20078163,60.19883 38.199218,79.79883 0,0 19.500782,-49.29883 -38.199218,-79.79883 z m 38.199218,79.79883 c 0,0 73.000001,16.99961 87.500001,-28.90039 0,0 -41.7,-27.19961 -87.500001,28.90039 z M 574,291.50078 c -57.7,30.5 -38.19922,79.79883 -38.19922,79.79883 60.3,-19.6 38.29922,-79.89883 38.19922,-79.79883 z m -38.19922,79.79883 c -45.8,-56.1 -87.4,-28.90039 -87.5,-28.90039 14.5,45.9 87.5,28.90039 87.5,28.90039 z M 2.5996094,367.00078 c -0.1,0 -16.9992184,64.59883 62.8007816,68.79883 0,0 -18.700782,-61.99883 -62.8007816,-68.79883 z m 62.8007816,68.79883 c 0,0 55.999219,-7.59961 66.199219,-47.59961 0,0.1 -50.099219,-12.70039 -66.199219,47.59961 z M 592.69922,367.00078 c -44.1,6.8 -62.79883,68.79883 -62.79883,68.79883 79,-4.2 61.99883,-68.79883 62.79883,-68.79883 z m -62.79883,68.79883 c -17,-60.3 -66.20117,-47.49961 -66.20117,-47.59961 10.2,40 66.20117,47.59961 66.20117,47.59961 z m -396.5,-5.09961 c -0.003,0.0152 -0.007,0.0297 -0.01,0.0449 0.0176,-0.0158 0.0228,-0.0302 0.01,-0.0449 z m -0.01,0.0449 c -1.06091,0.95048 -56.865425,4.28389 -49.291011,60.25586 0,0 39.077481,-6.79764 49.291011,-60.25586 z M 84.099609,491.00078 C 84.099609,491.00078 32.3,435.8 0,447.7 c 0,0 15.299609,75.60078 84.099609,43.30078 z M 461.09961,430.7 c 10.2,53.5 49.30078,60.30078 49.30078,60.30078 8.5,-56.9 -49.30078,-59.40078 -49.30078,-60.30078 z m 49.30078,60.30078 C 580.00039,523.30078 595.3,447.7 594.5,447.7 562.2,435.8 510.40039,491.00078 510.40039,491.00078 Z M 150.30078,472.29961 c 0,0 -23.80078,0.80117 -34.80078,21.20117 -6,11.1 -12.7,26.4 2.5,48.5 0,0 18.69922,-1.70078 27.19922,-23.80078 4.2,-10.2 5.10156,-26.30039 5.10156,-45.90039 z M 118,542.00078 c -18.6,-6.8 -33.100391,-12.8 -44.900391,-17 -24.7,-8.5 -47.599609,0 -47.599609,0 0,0 0.800391,12.69922 19.400391,27.19922 15.3,11 37.398828,11.89922 49.298828,10.19922 C 113.79922,559.79922 118,542.00078 118,542.00078 Z m 326.90039,-69.70117 c 0,19.6 0.89961,35.70039 5.09961,45.90039 8.5,22.1 27.19922,23.80078 27.19922,23.80078 15.3,-22.1 7.7,-37.4 2.5,-48.5 -11,-20.4 -34.79883,-21.20117 -34.79883,-21.20117 z m 32.29883,69.70117 c 0,0 4.20078,17.79844 23.80078,20.39844 11.9,1.7 34.00078,0.80078 49.30078,-10.19922 18.7,-13.6 19.5,-27.19922 19.5,-27.19922 0,0 -22.90156,-8.5 -47.60156,0 -11.8,4.2 -27.1,10.2 -45,17 z M 174.09961,507.10039 c 0,0 -51.80039,27.19922 -11.90039,80.69922 0,0 29.70039,-14.39922 11.90039,-80.69922 z m -11.90039,80.69922 C 93.399219,564.89961 73,594.60039 73,594.60039 c 51.8,50.9 89.19922,-6.80078 89.19922,-6.80078 z m 258.10156,-80.69922 c -17.8,66.3 11.89844,80.69922 11.89844,80.69922 40.8,-53.5 -10.99844,-80.69922 -11.89844,-80.69922 z m 11.89844,80.69922 c 0,0 37.40117,57.70078 89.20117,6.80078 0,0 -19.50117,-29.70078 -89.20117,-6.80078 z m -225.89844,-53.5 c 0.9,0 -39.00078,36.50039 10.19922,82.40039 0,0 14.40078,-48.40039 -10.19922,-82.40039 z M 216.5,616.7 C 120.6,615 131.59961,652.29922 131.59961,652.39922 208.89961,671.89922 216.5,616.7 216.5,616.7 Z m 171.59961,-82.40039 c -24.6,34 -10.19922,82.40039 -10.19922,82.40039 50.1,-45.9 10.19922,-82.40039 10.19922,-82.40039 z M 377.90039,616.7 c 0,0 7.60039,55.19922 84.90039,35.69922 0.9,-0.1 10.99961,-37.39922 -84.90039,-35.69922 z M 246.19922,551.29961 c 0.1,0 -34.79883,35.70117 35.70117,72.20117 0,0 -1.70117,-53.50117 -35.70117,-72.20117 z m 35.70117,72.20117 c -78.1,27.2 -74.70117,55.19922 -74.70117,55.19922 70.5,14.4 74.70117,-55.19922 74.70117,-55.19922 z m 66.29883,-72.20117 c -34,18.7 -35.69922,72.20117 -35.69922,72.20117 71.3,-36.5 35.69922,-72.20117 35.69922,-72.20117 z M 312.5,623.50078 c 0,0 4.19922,69.59922 74.69922,55.19922 0.9,0 3.40078,-27.99922 -74.69922,-55.19922 z" />
<text
   xml:space="preserve"
   style="font-size:29.3333px;line-height:1.25;font-family:Roboto;-inkscape-font-specification:Roboto;display:none"
   x="225.12932"
   y="411.76315"
   id="text1015"><tspan
     sodipodi:role="line"
     id="tspan1013"
     x="0"
     y="0"
     style="font-style:normal;font-variant:normal;font-weight:normal;font-stretch:normal;font-size:29.3333px;font-family:'Baskerville Old Face';-inkscape-font-specification:'Baskerville Old Face'">OVERALL</tspan></text><text
   xml:space="preserve"
   style="font-size:85.3333px;line-height:1.25;font-family:Roboto;-inkscape-font-specification:Roboto"
   x="209.12553"
   y="512.28766"
   id="text1019"><tspan
     sodipodi:role="line"
     id="tspan1017"
     x="209.12553"
     y="512.28766"
     style="font-style:normal;font-variant:normal;font-weight:normal;font-stretch:normal;font-size:85.3333px;font-family:Impact;-inkscape-font-specification:Impact">2023</tspan></text><text
   xml:space="preserve"
   style="font-size:42.6667px;line-height:1.25;font-family:Roboto;-inkscape-font-specification:Roboto"
   x="208.54338"
   y="397.73737"
   id="text1011"><tspan
     sodipodi:role="line"
     id="tspan1009"
     x="208.54338"
     y="397.73737"
     style="font-style:normal;font-variant:normal;font-weight:normal;font-stretch:normal;font-size:42.6667px;font-family:'Baskerville Old Face';-inkscape-font-specification:'Baskerville Old Face'">CHOICE</tspan></text><text
   xml:space="preserve"
   style="font-size:42.6667px;line-height:1.25;font-family:Roboto;-inkscape-font-specification:Roboto"
   x="165.87053"
   y="355.42624"
   id="text846"><tspan
     sodipodi:role="line"
     id="tspan844"
     x="165.87053"
     y="355.42624"
     style="font-style:normal;font-variant:normal;font-weight:normal;font-stretch:normal;font-size:42.6667px;font-family:'Baskerville Old Face';-inkscape-font-specification:'Baskerville Old Face'">CUSTOMER'S</tspan></text><path
   id="path848"
   style="display:inline;fill:#000000;fill-opacity:1;stroke:none;stroke-width:1.39787px;stroke-linecap:butt;stroke-linejoin:miter;stroke-opacity:1"
   d="m 229.72866,219.50441 c -3.66611,0.0262 -2.16562,2.99923 0.71678,7.32452 11.2804,16.92732 16.21275,30.24084 23.33124,34.31175 8.75345,5.00592 21.11203,6.28741 29.04982,4.80354 9.04734,-1.69132 10.45498,-10.74521 12.99416,-10.83919 2.63858,-0.0976 3.94685,9.14787 12.99419,10.83919 7.93779,1.48387 20.29635,0.20238 29.04982,-4.80354 7.11847,-4.07091 12.05081,-17.38443 23.33122,-34.31175 2.8824,-4.32529 4.38289,-7.29836 0.7168,-7.32452 -2.19966,-0.0157 -6.25963,1.02909 -12.99681,3.48057 -16.99765,6.18507 -50.95002,8.62282 -53.09522,8.7724 -2.14517,-0.14958 -36.09756,-2.58733 -53.09521,-8.7724 -6.73716,-2.45151 -10.79715,-3.49632 -12.99679,-3.48057 z m 41.90221,18.54129 c 0.55581,0.0244 1.126,0.0781 1.70926,0.17033 7.0228,1.10899 13.25938,8.09105 13.25938,8.09105 0,0 -3.02745,7.10538 -16.14755,6.95547 -8.3724,-0.0957 -12.3404,-8.80079 -12.3404,-8.80079 0,0 5.18207,-6.78227 13.51931,-6.41606 z m 48.3796,0 c 8.33723,-0.36621 13.51929,6.41606 13.51929,6.41606 0,0 -3.96797,8.70515 -12.34039,8.80079 -13.12008,0.14991 -16.14753,-6.95547 -16.14753,-6.95547 0,0 6.23658,-6.98206 13.25936,-8.09105 0.58326,-0.0922 1.15345,-0.14591 1.70927,-0.17033 z"
   sodipodi:nodetypes="sssssssssscsssscscsscscss" /></svg>
