<svg width="296" height="296" version="1.1" viewBox="0 0 78.3 78.3" xmlns="http://www.w3.org/2000/svg"><g transform="translate(-48.7 -99.4)" stroke-width=".353"><path d="m51.7 108c-0.604 0-1.33 0.227-1.6 0.504-0.852 1.09 1.51 4.17 2.3 6.11 0.693 1.89 1.05 4.45 0.489 9.65 0 0-2.85 4.08-2.82 10.2 0.0235 6.3 3.34 10.5 4.42 12.2 0.725 1.02-0.207 5.92-0.616 7.29-0.591 2.79-2.91 5.62-4.62 8.37-0.535 0-0.421 1.75 0.151 2.32v5.3e-4c2.02 1.83 4.37 1.97 7.54 1.92 5.17 0 6.07-0.22 6.07-1.48 0.551-1.81 2.35-7.29 3.06-10.8 0.795-3.87 0.404-5.14 1.98-5.33 0.688-0.0992 0.499-0.0672 1.92-0.0672 0.894 0 0.807 0.038 0.807 2.66 0 2.36-0.0295 2.49 0.565 3.39 0.447 0.681 2.15 0.782 2.9 0.0672 0.784-0.749 0.693-1.11 0.766-3.46l0.0946-3.04 5.63-0.284c4.39-0.2 14.9-3.9 16.9-10.6 1.46-0.111 2.51-0.141 4.23-0.189v5.61c0 2.72 0.0997 6.45 1.77 6.5 1.89-0.0366 1.66-3.8 1.69-6.53 0.0325-3.36 0.0579-4.11 0.115-5.73 2.33-0.173 5.77-0.451 5.77-0.451l0.0904 3.46c0.0178 1.73-0.125 4.18 1.9 4.27 1.83-0.0287 1.77-2.49 1.77-4.36-5e-3 -1.18 0.0591-2.25 0.127-3.67 2.11-0.258 2.84-0.169 4.83-0.461l0.0238 1.98c0.0252 1.3 0.131 3.06 1.88 3.01 1.3-0.0252 1.4-1.55 1.43-2.91l0.0708-2.49c0.957-0.143 2.13-0.469 3.15-0.705 0.908-0.21 0.887-0.7-0.0563-0.871-1.3-0.236-2.03-0.367-3.12-0.603-0.0119-0.346-0.0248-1.19-0.047-2.23-0.0237-1.11 0.0204-3.05-1.67-3.05-1.43-7e-3 -1.71 1.23-1.69 3l0.0238 2.09c-2.08 0-2.98 0.0589-5-8e-3 -0.0236-1.57-0.0503-3.03-0.0672-4.11-0.0289-1.85-0.33-3.64-2.1-3.62-1.71 0.0185-1.77 1.59-1.73 3.62 0.0208 1.23 0.0907 2.46 0.197 4.11l-3.37 0.0336h-2.47l-0.0331-5.21c-0.036-2.9 0.322-6.07-2.08-6.08-1.66-0.0102-1.45 3.52-1.41 5.93v5.36h-4.23c-0.0764-4.43-6.59-9.33-12.4-9.86-3.01-0.148-2.65 0.0126-3.15 0 0-0.3-0.0353-0.863-0.0155-1.53-1.67-0.539-2.29-0.705-4.24-1.15 0.0109 0.592 0.0638 1.82 0.0258 2.68 0 0-2.46 0.0718-5.07 0-8e-3 -1.16-0.0267-2.1-0.0584-3.61-0.94-0.181-1.59-0.387-2.83-0.616 0 0 0.0401 1.59 0.03 4.23-1.08 0.0289-2.65 5e-3 -4.07-0.0207v-2.31c0-1.98 0.524-3.15-0.488-3.79-2.92-1.83-3.36-2.15-7.05-4.69-2.98-2.05-5.68-4.74-6.58-4.74zm6.76 18.4a2.75 2.75 0 0 1 0.016 0 2.75 2.75 0 0 1 2.75 2.75 2.75 2.75 0 0 1-2.75 2.75 2.75 2.75 0 0 1-2.75-2.75 2.75 2.75 0 0 1 2.73-2.75zm10.3 6.33a2.75 2.75 0 0 1 0.016 0 2.75 2.75 0 0 1 2.75 2.75 2.75 2.75 0 0 1-2.75 2.75 2.75 2.75 0 0 1-2.75-2.75 2.75 2.75 0 0 1 2.73-2.75zm7.93 0h9.99v5.3e-4a2.18 2.75 0 0 1 2.12 2.75 2.18 2.75 0 0 1-2.18 2.75 2.18 2.75 0 0 1-0.0951-3e-3h-9.82a2.18 2.75 0 0 1-0.107 4e-3 2.18 2.75 0 0 1-2.18-2.75 2.18 2.75 0 0 1 2.18-2.75 2.18 2.75 0 0 1 0.0894 2e-3z" display="none"/><path d="m51.7 108c-0.604 0-1.33 0.227-1.6 0.504-0.852 1.09 1.51 4.17 2.3 6.11 0.693 1.89 1.05 4.45 0.489 9.65 0 0-2.85 4.08-2.82 10.2 0.0235 6.3 3.34 10.5 4.42 12.2 0.725 1.02-0.207 5.92-0.616 7.29-0.591 2.79-2.91 5.62-4.62 8.37-0.535 0-0.421 1.75 0.151 2.32v5.3e-4c2.02 1.83 4.37 1.97 7.54 1.92 5.17 0 6.07-0.22 6.07-1.48 0.551-1.81 2.35-7.29 3.06-10.8 0.795-3.87 0.404-5.14 1.98-5.33 0.688-0.0992 0.499-0.0672 1.92-0.0672 0.894 0 0.807 0.038 0.807 2.66 0 2.36-0.0295 2.49 0.565 3.39 0.447 0.681 2.15 0.782 2.9 0.0672 0.784-0.749 0.693-1.11 0.766-3.46l0.0946-3.04 5.63-0.284c4.39-0.2 14.9-3.9 16.9-10.6 1.46-0.111 2.51-0.141 4.23-0.189v5.61c0 2.72 0.0997 6.45 1.77 6.5 1.89-0.0366 1.66-3.8 1.69-6.53 0.0325-3.36 0.0579-4.11 0.115-5.73 2.33-0.173 5.77-0.451 5.77-0.451l0.0904 3.46c0.0178 1.73-0.125 4.18 1.9 4.27 1.83-0.0287 1.77-2.49 1.77-4.36-5e-3 -1.18 0.0591-2.25 0.127-3.67 2.11-0.258 2.84-0.169 4.83-0.461l0.0238 1.98c0.0252 1.3 0.131 3.06 1.88 3.01 1.3-0.0252 1.4-1.55 1.43-2.91l0.0708-2.49c0.957-0.143 2.13-0.469 3.15-0.705 0.908-0.21 0.887-0.7-0.0563-0.871-1.3-0.236-2.03-0.367-3.12-0.603-0.0119-0.346-0.0248-1.19-0.047-2.23-0.0237-1.11 0.0204-3.05-1.67-3.05-1.43-7e-3 -1.71 1.23-1.69 3l0.0238 2.09c-2.08 0-2.98 0.0589-5-8e-3 -0.0236-1.57-0.0503-3.03-0.0672-4.11-0.0289-1.85-0.33-3.64-2.1-3.62-1.71 0.0185-1.77 1.59-1.73 3.62 0.0208 1.23 0.0907 2.46 0.197 4.11l-3.37 0.0336h-2.47l-0.0331-5.21c-0.036-2.9 0.322-6.07-2.08-6.08-1.66-0.0102-1.45 3.52-1.41 5.93v5.36h-4.23c-0.0764-4.43-6.59-9.33-12.4-9.86-3.01-0.148-2.65 0.0126-3.15 0 0-0.3-0.0065-0.428-0.0155-1.09-0.0037-0.271 0.0486-0.515-2.01-1.04-2.19-0.561-2.23-0.542-2.23-0.0742-0.0032 0.511 0.0638 1.35 0.0258 2.21 0 0-1.52 0.105-4.13 0.0334-8e-3 -1.16 0.0111-1.7-0.025-2.88-0.0208-0.679-0.487-0.792-2.87-1.43-0.87-0.232-0.921 0.314-0.892 0.777 0.0241 0.376 0.0067 0.853-0.0034 3.5-1.08 0.0289-2.28 5e-3 -3.7-0.0207 0 0 0.0198-1.77 0.0334-2.54 0.0456-2.58 0.0894-3.22-0.923-3.86-2.92-1.83-3.33-1.85-7.02-4.39-2.98-2.05-5.68-4.74-6.58-4.74zm6.76 18.4c0.0053-2e-5 0.0107-2e-5 0.016 0 1.52 1.6e-4 2.75 1.23 2.75 2.75-1.66e-4 1.52-1.23 2.75-2.75 2.75-1.52 1.2e-4 -2.75-1.23-2.75-2.75-1.46e-4 -1.51 1.22-2.74 2.73-2.75zm10.3 6.33c0.0053-2e-5 0.0107-2e-5 0.016 0 1.52-1.2e-4 2.75 1.23 2.75 2.75 1.22e-4 1.52-1.23 2.75-2.75 2.75-1.52 1.2e-4 -2.75-1.23-2.75-2.75 1.4e-4 -1.51 1.22-2.74 2.73-2.75zm7.93 0h9.99v5.3e-4c1.18 0.0383 2.12 1.26 2.12 2.75 9.6e-5 1.52-0.975 2.75-2.18 2.75-0.0317-1.3e-4 -0.0634-1e-3 -0.0951-3e-3h-9.82c-0.0358 2e-3 -0.0716 4e-3 -0.107 4e-3 -1.2-3e-5 -2.18-1.23-2.18-2.75 1.31e-4 -1.52 0.975-2.75 2.18-2.75 0.0298-1.1e-4 0.0596 5.6e-4 0.0894 2e-3z"/></g></svg>
