<svg width="100" height="96.8" version="1.1" viewBox="0 0 26.6 25.6" xmlns="http://www.w3.org/2000/svg"><g transform="translate(-64.9 -18.8)"><path transform="matrix(.265 0 0 .265 64.9 18.8)" d="m38 0c-2 0.0177-3.8 0.374-5.28 1.16-4.97 2.67-7.04 9.23-4.78 16.6 0.164 0.538 0.342 1.05 0.525 1.55-8.34 6.27-13.9 16-14.5 27.1-3.74-0.0954-6.84-0.882-7.82-2.93-3.77-7.85 8.27-16.9 17.1-23.8 0.575-0.454 1.13-0.94 0.959-1.02-0.0259-0.0122-0.0678-0.0154-0.129-0.0078-0.183 0.0226-0.536 0.141-1.12 0.395-2.42 1.05-7.79 3.88-10.8 5.99-6.12 4.22-11.9 10.3-12 15.7-0.178 5.64 4.48 10.7 12 12.5 0.768 0.178 1.51 0.316 2.24 0.43 1.53 10.6 7.66 19.7 16.3 25.3-1.96 3.2-4.19 5.49-6.46 5.32-8.68-0.655-10.5-15.6-12.1-26.7-0.169-1.16-0.435-2.32-0.697-0.0644-0.304 2.62-0.535 8.69-0.238 12.4 0.594 7.41 3 15.4 7.55 18.2 4.79 2.97 11.5 1.48 16.8-4.18 0.547-0.586 1.05-1.17 1.52-1.76 4.12 1.63 8.61 2.53 13.3 2.53 6.32-1e-6 12.3-1.63 17.5-4.48 1.96 3.46 2.95 6.73 1.61 8.69-4.91 7.19-18.7 1.28-29.2-2.87-1.09-0.434-2.23-0.785-0.404 0.57 2.12 1.57 7.26 4.81 10.6 6.4 6.71 3.19 14.9 5.12 19.6 2.59 4.97-2.67 7.04-9.24 4.78-16.6-0.311-1.02-0.67-1.96-1.04-2.86 7.52-6.35 12.4-15.7 12.9-26.2 3.74 0.0966 6.83 0.884 7.81 2.93 3.77 7.85-8.27 16.9-17.1 23.8-0.92 0.726-1.79 1.54 0.293 0.637 2.42-1.05 7.79-3.88 10.8-5.99 6.12-4.22 11.9-10.3 12-15.7 0.178-5.64-4.48-10.7-12-12.5-0.786-0.182-1.55-0.325-2.29-0.439-1.62-10.5-7.71-19.4-16.2-25 1.96-3.2 4.19-5.49 6.46-5.32 8.68 0.655 10.5 15.6 12.1 26.7 0.169 1.16 0.435 2.32 0.697 0.0644 0.304-2.62 0.533-8.69 0.236-12.4-0.594-7.41-3-15.4-7.55-18.2-1.5-0.929-3.18-1.42-4.96-1.49-3.9-0.145-8.21 1.78-11.8 5.67-0.547 0.586-1.05 1.17-1.52 1.76-4.12-1.63-8.61-2.54-13.3-2.54-5.65 0-11 1.3-15.8 3.61-1.63-3.13-2.37-6.02-1.14-7.82 4.91-7.19 18.7-1.28 29.2 2.87 1.09 0.434 2.23 0.785 0.404-0.57-2.12-1.57-7.26-4.81-10.6-6.4-4.61-2.19-9.91-3.79-14.3-3.75zm12.3 19c3.28 0 6.43 0.54 9.37 1.52-1.31 2.31-2.49 4.55-4.06 6.62-1.96 2.59-4.17 3.9-6.08 5.07-1.87-1-3.67-2.36-5.12-3.78-1.75-1.71-3.99-4.2-6.05-6.91 3.65-1.62 7.68-2.52 11.9-2.52zm16.6 5.1c6.17 4.21 10.6 10.7 12.2 18.3-2.65 0.0183-5.16 0.112-7.73-0.209-3.51-0.439-5.86-1.9-7.95-3.01-0.126-2.25 0.158-4.68 0.697-6.79 0.579-2.26 1.55-5.28 2.79-8.28zm-35.3 1.61c1.46 2.54 2.96 4.84 4.06 7.46 1.2 2.85 1.29 5.32 1.34 7.48-0.13 0.0861-0.248 0.151-0.387 0.254-2.03 1.5-4.64 2.68-7.04 3.36-2.24 0.627-5.32 1.29-8.53 1.72 0.655-8.16 4.61-15.4 10.6-20.3zm18.7 17.2a5.49 5.49 0 0 1 5.49 5.49 5.49 5.49 0 0 1-5.49 5.49 5.49 5.49 0 0 1-5.49-5.49 5.49 5.49 0 0 1 5.49-5.49zm29.3 7.53c-0.52 7.64-3.93 14.5-9.16 19.4-1.22-2.06-2.41-4.03-3.33-6.2-1.53-3.63-1.26-6.66-1.41-9.19 1.69-0.98 3.58-1.76 5.36-2.26 2.24-0.628 5.34-1.29 8.55-1.72zm-54.4 3.57c1.34 0.0109 2.67 0.0661 4.02 0.234 3.49 0.437 5.84 1.88 7.92 2.99 0.182 2.35-0.0961 4.94-0.666 7.17-0.579 2.26-1.55 5.28-2.79 8.28-6.26-4.27-10.8-10.9-12.3-18.6 1.28-0.0082 2.54-0.0355 3.78-0.0254zm26.8 9.96c2.28 1.01 4.56 2.65 6.31 4.37 1.58 1.55 3.58 3.75 5.47 6.16-4.04 2.09-8.63 3.28-13.5 3.28-3.28 0-6.42-0.54-9.37-1.52 1.31-2.31 2.49-4.55 4.06-6.62 2.29-3.02 4.94-4.32 7.02-5.66z" color="#000000" color-rendering="auto" dominant-baseline="auto" image-rendering="auto" shape-rendering="auto" solid-color="#000000" stop-color="#000000" style="font-feature-settings:normal;font-variant-alternates:normal;font-variant-caps:normal;font-variant-east-asian:normal;font-variant-ligatures:normal;font-variant-numeric:normal;font-variant-position:normal;font-variation-settings:normal;inline-size:0;isolation:auto;mix-blend-mode:normal;shape-margin:0;shape-padding:0;text-decoration-color:#000000;text-decoration-line:none;text-decoration-style:solid;text-indent:0;text-orientation:mixed;text-transform:none;white-space:normal"/></g></svg>
