<svg width="100" height="96.8" version="1.1" viewBox="0 0 26.6 25.6" xmlns="http://www.w3.org/2000/svg"><path d="m10.1 0c-0.53 0.00469-1.01 0.0991-1.4 0.307-1.32 0.708-1.87 2.45-1.27 4.4 0.0435 0.143 0.0906 0.278 0.139 0.411-2.21 1.66-3.68 4.24-3.84 7.18-0.991-0.0253-1.81-0.234-2.07-0.776-0.999-2.08 2.19-4.48 4.53-6.31 0.152-0.12 0.299-0.249 0.254-0.27-0.00686-0.00323-0.018-0.00408-0.0342-0.00207-0.0485 0.00599-0.142 0.0374-0.297 0.105-0.641 0.278-2.06 1.03-2.86 1.59-1.62 1.12-3.15 2.73-3.18 4.16-0.0472 1.49 1.19 2.84 3.18 3.31 0.204 0.0472 0.4 0.0837 0.594 0.114 0.405 2.81 2.03 5.22 4.32 6.7-0.519 0.848-1.11 1.45-1.71 1.41-2.3-0.174-2.78-4.13-3.21-7.08-0.0448-0.307-0.115-0.615-0.185-0.0171-0.0806 0.694-0.142 2.3-0.0631 3.29 0.157 1.96 0.795 4.08 2 4.82 1.27 0.787 3.05 0.392 4.45-1.11 0.145-0.155 0.278-0.31 0.403-0.466 1.09 0.432 2.28 0.67 3.52 0.67 1.67 0 3.26-0.432 4.64-1.19 0.519 0.917 0.782 1.78 0.427 2.3-1.3 1.91-4.96 0.339-7.74-0.761-0.289-0.115-0.591-0.208-0.107 0.151 0.562 0.416 1.92 1.27 2.81 1.7 1.78 0.845 3.95 1.36 5.19 0.686 1.32-0.708 1.87-2.45 1.27-4.4-0.0824-0.27-0.178-0.519-0.276-0.758 1.99-1.68 3.29-4.16 3.42-6.94 0.991 0.0256 1.81 0.234 2.07 0.776 0.999 2.08-2.19 4.48-4.53 6.31-0.244 0.192-0.474 0.408 0.0776 0.169 0.641-0.278 2.06-1.03 2.86-1.59 1.62-1.12 3.15-2.73 3.18-4.16 0.0472-1.49-1.19-2.84-3.18-3.31-0.208-0.0482-0.411-0.0861-0.607-0.116-0.429-2.78-2.04-5.14-4.29-6.62 0.519-0.848 1.11-1.45 1.71-1.41 2.3 0.174 2.78 4.13 3.21 7.08 0.0448 0.307 0.115 0.615 0.185 0.0171 0.0806-0.694 0.141-2.3 0.0625-3.29-0.157-1.96-0.795-4.08-2-4.82-0.398-0.246-0.843-0.376-1.31-0.395-1.03-0.0384-2.18 0.472-3.13 1.5-0.145 0.155-0.278 0.31-0.403 0.466-1.09-0.432-2.28-0.673-3.52-0.673-1.5 0-2.92 0.344-4.19 0.957-0.432-0.829-0.628-1.6-0.302-2.07 1.3-1.91 4.96-0.339 7.74 0.761 0.289 0.115 0.591 0.208 0.107-0.151-0.562-0.416-1.92-1.27-2.81-1.7-1.22-0.58-2.63-1-3.79-0.994zm3.26 5.04c0.869 0 1.7 0.143 2.48 0.403-0.347 0.612-0.66 1.21-1.08 1.75-0.519 0.686-1.11 1.03-1.61 1.34-0.496-0.265-0.973-0.625-1.36-1-0.464-0.453-1.06-1.11-1.6-1.83 0.967-0.429 2.04-0.668 3.15-0.668zm4.4 1.35c1.64 1.12 2.81 2.84 3.23 4.85-0.702 0.0048-1.37 0.0297-2.05-0.0554-0.93-0.116-1.55-0.504-2.11-0.798-0.0334-0.596 0.0419-1.24 0.185-1.8 0.153-0.599 0.411-1.4 0.739-2.19zm-9.35 0.427c0.387 0.673 0.784 1.28 1.08 1.98 0.318 0.755 0.342 1.41 0.355 1.98-0.0344 0.0228-0.0657 0.04-0.103 0.0673-0.538 0.398-1.23 0.71-1.87 0.89-0.594 0.166-1.41 0.342-2.26 0.456 0.174-2.16 1.22-4.08 2.81-5.38zm4.96 4.56a1.45 1.45 0 0 1 1.45 1.45 1.45 1.45 0 0 1-1.45 1.45 1.45 1.45 0 0 1-1.45-1.45 1.45 1.45 0 0 1 1.45-1.45zm7.76 2c-0.138 2.02-1.04 3.84-2.43 5.14-0.323-0.546-0.639-1.07-0.882-1.64-0.405-0.962-0.334-1.76-0.374-2.44 0.448-0.26 0.949-0.466 1.42-0.599 0.594-0.166 1.42-0.342 2.27-0.456zm-14.4 0.946c0.355 0.0029 0.708 0.0175 1.07 0.062 0.925 0.116 1.55 0.498 2.1 0.792 0.0482 0.623-0.0255 1.31-0.176 1.9-0.153 0.599-0.411 1.4-0.739 2.19-1.66-1.13-2.86-2.89-3.26-4.93 0.339-0.0022 0.673-0.0094 1-0.0067zm7.1 2.64c0.604 0.268 1.21 0.702 1.67 1.16 0.419 0.411 0.949 0.994 1.45 1.63-1.07 0.554-2.29 0.869-3.58 0.869-0.869 0-1.7-0.143-2.48-0.403 0.347-0.612 0.66-1.21 1.08-1.75 0.607-0.8 1.31-1.14 1.86-1.5z" color="#000000" color-rendering="auto" dominant-baseline="auto" fill="#fff" image-rendering="auto" shape-rendering="auto" solid-color="#000000" stop-color="#000000" stroke-width=".265" style="font-feature-settings:normal;font-variant-alternates:normal;font-variant-caps:normal;font-variant-east-asian:normal;font-variant-ligatures:normal;font-variant-numeric:normal;font-variant-position:normal;font-variation-settings:normal;inline-size:0;isolation:auto;mix-blend-mode:normal;shape-margin:0;shape-padding:0;text-decoration-color:#000000;text-decoration-line:none;text-decoration-style:solid;text-indent:0;text-orientation:mixed;text-transform:none;white-space:normal"/></svg>
