<svg width="100" height="100" version="1.1" viewBox="0 0 26.5 26.5" xmlns="http://www.w3.org/2000/svg"><path d="m20.9 24.9c-0.931-0.825-3.42-2.75-5.53-4.29l-3.83-2.79-1.2 0.646c-0.659 0.355-2.47 1.97-4.02 3.58-2.84 2.96-3.86 3.55-3.86 2.22 0-1.01 1.26-4.64 2.68-7.71 0.662-1.43 1.2-2.78 1.2-3-2e-3 -0.215-0.92-1.06-2.04-1.88-1.12-0.816-2.43-1.9-2.91-2.41-0.852-0.906-0.855-0.936-0.185-1.43 0.491-0.359 1.76-0.501 4.49-0.501 3.57 0 3.83-0.049 4.28-0.794 0.261-0.437 1-1.67 1.65-2.73s1.41-2.38 1.69-2.93c0.279-0.543 0.667-0.935 0.863-0.87 0.195 0.0651 0.559 0.668 0.809 1.34 0.25 0.672 0.871 2.26 1.38 3.53l0.928 2.31 4.23-0.151c4.09-0.146 4.23-0.126 4.23 0.579 0 0.523-0.902 1.35-3.18 2.91-1.75 1.2-3.27 2.32-3.38 2.5-0.333 0.539 2.65 9.28 3.77 11 1.72 2.72 0.604 3.16-2.05 0.806zm-0.968-3.7c-0.133-0.34-0.642-1.89-1.13-3.44-0.488-1.55-1.01-2.95-1.17-3.12-0.234-0.248-4.24 2.08-4.24 2.46 0 0.226 6.16 4.7 6.48 4.71 0.166 2e-3 0.193-0.275 0.0599-0.614zm-10-4.32c0.525 0 0.0728-0.577-1.12-1.43l-1.06-0.752-1.23 2.65c-0.674 1.46-1.23 2.84-1.23 3.07 0 0.228 0.962-0.476 2.14-1.56 1.18-1.09 2.3-1.98 2.49-1.98zm4.54-2.47c1.14-0.775 2.15-1.53 2.25-1.69s0.0121-1.03-0.183-1.94l-0.355-1.66h-5.8l-0.776 1.6c-0.427 0.878-0.776 1.81-0.776 2.08 0 0.541 2.63 3.03 3.2 3.03 0.204 0 1.31-0.634 2.45-1.41zm-6.52-3.76c0.296-0.709 0.475-1.35 0.398-1.43-0.0771-0.0771-1.15-0.0924-2.39-0.034l-2.25 0.106 1.73 1.32c0.95 0.728 1.78 1.32 1.85 1.32 0.0665 0 0.363-0.58 0.659-1.29zm14.5-2.17c-0.0854-0.0854-1.2-0.043-2.49 0.0942l-2.33 0.25 0.239 1.12c0.132 0.614 0.303 1.23 0.381 1.36 0.078 0.133 1.09-0.412 2.25-1.21 1.16-0.799 2.03-1.52 1.95-1.61zm-6.97-1.29c0.283-0.283-1.07-3.46-1.54-3.61-0.212-0.0707-0.909 0.853-1.55 2.05l-1.16 2.18 2.03-0.209c1.11-0.115 2.12-0.3 2.23-0.412z" stroke-width=".353"/></svg>
