<?xml version="1.0" encoding="UTF-8" standalone="no"?>
<svg
   xmlns:dc="http://purl.org/dc/elements/1.1/"
   xmlns:cc="http://creativecommons.org/ns#"
   xmlns:rdf="http://www.w3.org/1999/02/22-rdf-syntax-ns#"
   xmlns:svg="http://www.w3.org/2000/svg"
   xmlns="http://www.w3.org/2000/svg"
   xmlns:sodipodi="http://sodipodi.sourceforge.net/DTD/sodipodi-0.dtd"
   xmlns:inkscape="http://www.inkscape.org/namespaces/inkscape"
   width="400"
   height="73.3"
   version="1.1"
   viewBox="0 0 106 19.4"
   id="svg10"
   sodipodi:docname="subtitle-with-decorations-white-pt2.svg"
   inkscape:version="1.0.1 (3bc2e813f5, 2020-09-07)">
  <metadata
     id="metadata16">
    <rdf:RDF>
      <cc:Work
         rdf:about="">
        <dc:format>image/svg+xml</dc:format>
        <dc:type
           rdf:resource="http://purl.org/dc/dcmitype/StillImage" />
        <dc:title></dc:title>
      </cc:Work>
    </rdf:RDF>
  </metadata>
  <defs
     id="defs14" />
  <sodipodi:namedview
     pagecolor="#6a6f64"
     bordercolor="#666666"
     borderopacity="1"
     objecttolerance="10"
     gridtolerance="10"
     guidetolerance="10"
     inkscape:pageopacity="0"
     inkscape:pageshadow="2"
     inkscape:window-width="1920"
     inkscape:window-height="1017"
     id="namedview12"
     showgrid="false"
     inkscape:zoom="3.9173716"
     inkscape:cx="118.80604"
     inkscape:cy="-6.9715262"
     inkscape:window-x="-8"
     inkscape:window-y="-8"
     inkscape:window-maximized="1"
     inkscape:current-layer="g6" />
  <g
     transform="translate(99.7,-8.72)"
     id="g8">
    <g
       transform="translate(-0.13,-0.344)"
       id="g6">
      <path
         d="m -60.4,9.06 c -0.102,-0.0217 -0.315,0.228 -0.596,0.594 -0.738,0.959 -3.17,2.82 -3.17,2.82 0,0 0.73,0.17 1.44,0.643 0.681,0.457 0.935,0.961 0.935,0.961 0,0 0.807,-1.9 1.15,-3.26 0.32,-1.26 0.371,-1.74 0.24,-1.76 z m -32,0.0088 c -1.03,0 -1.84,0.282 -2.41,0.844 -0.574,0.563 -0.861,1.36 -0.861,2.39 v 0.853 h -1.42 v 1.55 h 1.42 v 7.77 h 2.09 v -7.77 h 1.89 v -1.55 h -1.89 v -0.827 c 0,-1.03 0.5,-1.54 1.5,-1.54 0.304,0 0.571,0.0228 0.801,0.0687 l 0.0517,-1.64 c -0.413,-0.103 -0.804,-0.155 -1.17,-0.155 z M -71,9.1551 c -0.131,0.0279 -0.0805,0.506 0.24,1.76 0.344,1.35 1.15,3.25 1.15,3.25 0,0 0.254,-0.503 0.935,-0.96 0.707,-0.474 1.44,-0.643 1.44,-0.643 0,0 -2.43,-1.86 -3.17,-2.82 -0.281,-0.365 -0.494,-0.616 -0.596,-0.594 z m -91.5,0.0946 v 4.75 c -0.591,-0.678 -1.34,-1.02 -2.25,-1.02 -1.13,0 -2.02,0.431 -2.68,1.29 -0.649,0.861 -0.973,2.02 -0.973,3.47 0,1.54 0.33,2.74 0.991,3.61 0.666,0.861 1.55,1.29 2.64,1.29 0.976,0 1.77,-0.388 2.39,-1.16 l 0.12,0.99 h 2.25 v -13.2 z m 38.4,0 v 13.2 h 2.09 v -13.2 z m 77.6,0 v 13.2 h 2.5 v -13.2 z m -3.43,0.215 c -0.431,0 -0.772,0.121 -1.02,0.362 -0.247,0.241 -0.371,0.548 -0.371,0.921 0,0.379 0.127,0.689 0.379,0.93 0.258,0.241 0.597,0.362 1.02,0.362 0.419,0 0.755,-0.121 1.01,-0.362 0.258,-0.241 0.388,-0.551 0.388,-0.93 0,-0.373 -0.126,-0.68 -0.379,-0.921 -0.253,-0.241 -0.592,-0.362 -1.02,-0.362 z m -68.7,0.155 c -0.379,0 -0.672,0.106 -0.878,0.319 -0.201,0.212 -0.301,0.479 -0.301,0.801 0,0.316 0.1,0.58 0.301,0.792 0.207,0.207 0.5,0.31 0.878,0.31 0.378,0 0.672,-0.103 0.878,-0.31 0.207,-0.212 0.31,-0.476 0.31,-0.792 0,-0.322 -0.103,-0.589 -0.31,-0.801 -0.207,-0.212 -0.5,-0.319 -0.878,-0.319 z m 82.3,0 c -0.379,0 -0.672,0.106 -0.878,0.319 -0.201,0.212 -0.301,0.479 -0.301,0.801 0,0.316 0.1,0.58 0.301,0.792 0.207,0.207 0.5,0.31 0.878,0.31 0.379,0 0.672,-0.103 0.878,-0.31 0.207,-0.212 0.31,-0.476 0.31,-0.792 0,-0.322 -0.103,-0.589 -0.31,-0.801 -0.207,-0.212 -0.5,-0.319 -0.878,-0.319 z m -78.5,1.27 v 2.26 h -1.53 v 1.55 h 1.53 v 5.28 c 0,1.77 0.804,2.66 2.41,2.66 0.442,0 0.902,-0.0664 1.38,-0.198 v -1.62 c -0.247,0.0574 -0.491,0.0863 -0.732,0.0863 -0.362,0 -0.615,-0.0775 -0.758,-0.233 -0.138,-0.161 -0.207,-0.419 -0.207,-0.775 v -5.2 h 1.65 v -1.55 h -1.65 v -2.26 z m 92.1,0 v 2.26 h -1.53 v 1.55 h 1.53 v 5.28 c 0,1.77 0.804,2.66 2.41,2.66 0.442,0 0.902,-0.0664 1.38,-0.198 v -1.62 c -0.247,0.0574 -0.491,0.0863 -0.732,0.0863 -0.362,0 -0.614,-0.0775 -0.758,-0.233 -0.138,-0.161 -0.207,-0.419 -0.207,-0.775 v -5.2 h 1.64 v -1.55 h -1.64 v -2.26 z m 25.1,0 v 2.26 H 0.84 v 1.55 h 1.53 v 5.28 c 0,1.77 0.804,2.66 2.41,2.66 0.442,0 0.901,-0.0664 1.38,-0.198 v -1.62 C 5.913,20.8791 5.669,20.908 5.428,20.908 5.066,20.908 4.814,20.8305 4.67,20.675 4.532,20.514 4.463,20.256 4.463,19.9 v -5.2 h 1.64 v -1.55 h -1.64 v -2.26 z m -197,2.09 c -1.15,0 -2.07,0.436 -2.76,1.31 -0.678,0.873 -1.02,2.02 -1.02,3.45 v 0.103 c 0,1.45 0.344,2.61 1.03,3.49 0.695,0.873 1.6,1.31 2.72,1.31 0.936,0 1.69,-0.325 2.27,-0.974 v 0.5 c 0,0.649 -0.184,1.15 -0.551,1.5 -0.367,0.356 -0.881,0.534 -1.54,0.534 -0.884,0 -1.64,-0.347 -2.26,-1.04 l -1.1,1.52 c 0.333,0.431 0.824,0.781 1.47,1.05 0.649,0.276 1.31,0.413 2,0.413 0.901,0 1.69,-0.158 2.36,-0.473 0.672,-0.316 1.19,-0.775 1.56,-1.38 0.373,-0.603 0.56,-1.31 0.56,-2.13 v -9.01 h -2.26 l -0.103,0.878 c -0.568,-0.701 -1.36,-1.05 -2.39,-1.05 z m 10.7,0 c -0.884,0 -1.66,0.198 -2.33,0.594 -0.666,0.396 -1.18,0.956 -1.53,1.68 -0.356,0.723 -0.534,1.55 -0.534,2.47 v 0.112 c 0,1.48 0.399,2.65 1.2,3.51 0.804,0.861 1.88,1.29 3.22,1.29 1.34,0 2.41,-0.431 3.21,-1.29 0.798,-0.867 1.2,-2.02 1.2,-3.45 l -0.0171,-0.637 c -0.0919,-1.32 -0.537,-2.37 -1.33,-3.14 -0.792,-0.769 -1.82,-1.15 -3.07,-1.15 z m 9.97,0 c -0.884,0 -1.66,0.198 -2.33,0.594 -0.666,0.396 -1.18,0.956 -1.53,1.68 -0.356,0.723 -0.534,1.55 -0.534,2.47 v 0.112 c 0,1.48 0.399,2.65 1.2,3.51 0.804,0.861 1.88,1.29 3.22,1.29 1.34,0 2.41,-0.431 3.21,-1.29 0.798,-0.867 1.2,-2.02 1.2,-3.45 l -0.017,-0.637 c -0.0919,-1.32 -0.537,-2.37 -1.33,-3.14 -0.792,-0.769 -1.82,-1.15 -3.07,-1.15 z m 23.7,0 c -1.14,0 -2.04,0.428 -2.7,1.28 -0.666,0.856 -0.999,2.01 -0.999,3.47 0,1.53 0.336,2.74 1.01,3.61 0.672,0.867 1.56,1.3 2.68,1.3 0.976,0 1.77,-0.322 2.38,-0.965 v 4.38 h 2.09 v -12.9 h -1.86 l -0.12,0.921 c -0.609,-0.729 -1.43,-1.09 -2.47,-1.09 z m 20.2,0 c -0.718,0 -1.37,0.126 -1.95,0.379 -0.58,0.253 -1.04,0.603 -1.38,1.05 -0.339,0.442 -0.508,0.919 -0.508,1.43 h 2.09 c 0,-0.367 0.152,-0.669 0.456,-0.904 0.304,-0.241 0.695,-0.362 1.17,-0.362 0.551,0 0.962,0.146 1.23,0.439 0.27,0.287 0.405,0.672 0.405,1.15 v 0.612 h -1.28 c -1.37,0 -2.43,0.267 -3.17,0.801 -0.735,0.528 -1.1,1.29 -1.1,2.28 0,0.787 0.296,1.45 0.887,1.98 0.591,0.534 1.35,0.801 2.29,0.801 0.965,0 1.78,-0.348 2.45,-1.04 0.0689,0.402 0.149,0.692 0.241,0.87 h 2.14 v -0.146 c -0.235,-0.5 -0.353,-1.17 -0.353,-2.01 v -4.2 c -0.0172,-0.993 -0.35,-1.76 -0.999,-2.31 -0.649,-0.551 -1.52,-0.827 -2.61,-0.827 z m 43.8,0 c -0.85,0 -1.6,0.198 -2.26,0.594 -0.655,0.39 -1.16,0.953 -1.52,1.69 -0.362,0.729 -0.543,1.55 -0.543,2.46 v 0.103 c 0,1.46 0.394,2.63 1.18,3.51 0.792,0.873 1.85,1.31 3.16,1.31 0.861,0 1.62,-0.198 2.27,-0.594 0.66,-0.396 1.17,-0.956 1.52,-1.68 0.356,-0.723 0.534,-1.54 0.534,-2.46 l -0.0088,-0.491 c -0.0632,-1.34 -0.488,-2.41 -1.27,-3.22 -0.781,-0.81 -1.8,-1.21 -3.06,-1.21 z m 10.3,0 c -0.896,0 -1.6,0.405 -2.1,1.21 l -0.0517,-1.04 h -2 v 9.32 h 2.09 v -6.37 c 0.333,-0.735 0.979,-1.1 1.94,-1.1 0.293,0 0.577,0.0228 0.853,0.0687 l 0.0088,-1.96 c -0.195,-0.0804 -0.442,-0.12 -0.741,-0.12 z m 10.3,0 c -0.85,0 -1.61,0.201 -2.27,0.603 -0.66,0.396 -1.17,0.965 -1.53,1.71 -0.362,0.735 -0.543,1.57 -0.543,2.51 v 0.241 c 0,1.4 0.428,2.51 1.28,3.35 0.861,0.838 1.97,1.26 3.34,1.26 0.775,0 1.48,-0.146 2.12,-0.439 0.637,-0.299 1.14,-0.712 1.52,-1.24 l -1.22,-1.37 c -0.54,0.695 -1.29,1.04 -2.25,1.04 -0.62,0 -1.13,-0.183 -1.54,-0.551 -0.402,-0.367 -0.643,-0.856 -0.723,-1.46 h 5.93 v -1.02 c 0,-1.48 -0.367,-2.62 -1.1,-3.42 -0.729,-0.804 -1.73,-1.21 -3.01,-1.21 z m 37.4,0 c -1.12,0 -2.02,0.416 -2.71,1.25 l -0.06,-1.08 H -33 v 9.32 h 2.09 v -6.63 c 0.413,-0.764 1.04,-1.15 1.89,-1.15 0.58,0 0.996,0.144 1.25,0.431 0.258,0.281 0.388,0.718 0.388,1.31 v 6.04 h 2.09 v -6.16 c -0.0344,-2.22 -1.02,-3.33 -2.96,-3.33 z m 14.8,0 c -0.798,0 -1.52,0.204 -2.17,0.611 -0.649,0.408 -1.15,0.979 -1.52,1.71 -0.356,0.729 -0.534,1.56 -0.534,2.49 v 0.258 c 0,1.39 0.41,2.5 1.23,3.34 0.827,0.833 1.9,1.25 3.23,1.25 0.775,0 1.47,-0.153 2.09,-0.457 0.626,-0.31 1.13,-0.743 1.5,-1.3 l -1.13,-1.08 c -0.603,0.775 -1.38,1.16 -2.34,1.16 -0.683,0 -1.25,-0.224 -1.71,-0.672 -0.448,-0.448 -0.704,-1.06 -0.767,-1.83 h 6.09 v -0.844 c 0,-1.48 -0.348,-2.63 -1.04,-3.44 -0.689,-0.81 -1.67,-1.21 -2.94,-1.21 z m 10.3,0 c -1.12,0 -2.02,0.416 -2.71,1.25 l -0.0599,-1.08 h -1.97 v 9.32 h 2.09 v -6.63 c 0.413,-0.764 1.04,-1.15 1.89,-1.15 0.58,0 0.996,0.144 1.25,0.431 0.258,0.281 0.388,0.718 0.388,1.31 v 6.04 h 2.09 v -6.16 c -0.0345,-2.22 -1.02,-3.33 -2.96,-3.33 z m -141,0.172 v 6.04 c 0,1.12 0.258,1.98 0.775,2.57 0.522,0.591 1.29,0.887 2.3,0.887 1.13,0 2,-0.362 2.62,-1.09 l 0.0517,0.913 h 1.97 v -9.32 h -2.09 v 6.69 c -0.356,0.729 -1.04,1.09 -2.06,1.09 -0.982,0 -1.47,-0.592 -1.47,-1.77 v -6.01 z m 24,0 v 9.32 h 2.09 v -9.32 z m 9.27,0 3.27,9.28 -0.302,0.801 c -0.155,0.454 -0.367,0.775 -0.637,0.965 -0.264,0.195 -0.66,0.292 -1.19,0.292 l -0.396,-0.0258 v 1.62 c 0.367,0.103 0.703,0.155 1.01,0.155 1.36,0 2.33,-0.784 2.89,-2.35 l 3.7,-10.7 h -2.23 l -1.89,6.32 -1.97,-6.32 z m 49.3,0 3.14,9.32 h 2.38 l 3.14,-9.32 h -2.6 l -1.73,6.28 -1.73,-6.28 z m 9.89,0 v 9.32 h 2.5 v -9.32 z m 13.9,0 v 9.32 h 2.09 v -9.32 z m -112,1.51 c 0.815,0 1.42,0.338 1.83,1.02 v 4.24 c -0.402,0.706 -1.02,1.06 -1.84,1.06 -0.666,0 -1.19,-0.27 -1.57,-0.809 -0.373,-0.545 -0.56,-1.29 -0.56,-2.25 0,-1.1 0.189,-1.92 0.568,-2.45 0.385,-0.534 0.91,-0.801 1.58,-0.801 z m 63.6,0 c 0.695,0 1.24,0.276 1.65,0.827 0.408,0.551 0.611,1.3 0.611,2.24 0,1.06 -0.198,1.87 -0.594,2.42 -0.39,0.551 -0.939,0.827 -1.64,0.827 -0.706,0 -1.26,-0.27 -1.65,-0.809 -0.396,-0.545 -0.594,-1.3 -0.594,-2.26 0,-1.08 0.201,-1.89 0.603,-2.43 0.402,-0.545 0.945,-0.818 1.63,-0.818 z m 72.8,0 c 0.58,0 1.03,0.181 1.36,0.543 0.327,0.356 0.514,0.884 0.56,1.58 v 0.155 h -3.99 c 0.0976,-0.718 0.322,-1.28 0.672,-1.68 0.356,-0.402 0.821,-0.603 1.4,-0.603 z m -171,0.336 c 0.614,0 1.09,0.238 1.43,0.715 0.34,0.477 0.508,1.15 0.508,2.02 0,1.02 -0.17,1.76 -0.508,2.22 -0.339,0.459 -0.809,0.689 -1.41,0.689 -0.62,0 -1.1,-0.233 -1.43,-0.698 -0.333,-0.471 -0.499,-1.15 -0.499,-2.03 0,-0.993 0.166,-1.73 0.499,-2.2 0.333,-0.477 0.804,-0.715 1.41,-0.715 z m 9.97,0 c 0.614,0 1.09,0.238 1.43,0.715 0.34,0.477 0.508,1.15 0.508,2.02 0,1.02 -0.17,1.76 -0.508,2.22 -0.339,0.459 -0.809,0.689 -1.41,0.689 -0.62,0 -1.1,-0.233 -1.43,-0.698 -0.333,-0.471 -0.499,-1.15 -0.499,-2.03 0,-0.993 0.166,-1.73 0.499,-2.2 0.333,-0.477 0.804,-0.715 1.41,-0.715 z m 108.745778,0 c 0.528,0 0.936,0.152 1.22,0.456 0.287,0.299 0.437,0.724 0.448,1.27 v 0.198 h -3.46 c 0.0861,-0.62 0.281,-1.1 0.585,-1.43 0.31,-0.333 0.712,-0.499 1.21,-0.499 z M -194.43,15.006 c 0.741,0 1.28,0.284 1.61,0.853 v 3.92 c -0.327,0.568 -0.87,0.853 -1.63,0.853 -0.591,0 -1.06,-0.239 -1.4,-0.715 -0.339,-0.482 -0.508,-1.15 -0.508,-1.99 0,-0.97 0.17,-1.7 0.508,-2.19 0.345,-0.488 0.815,-0.732 1.41,-0.732 z m 29.9,0 c 0.764,0 1.3,0.325 1.61,0.974 v 3.68 c -0.316,0.649 -0.858,0.974 -1.63,0.974 -0.58,0 -1.02,-0.233 -1.33,-0.698 -0.304,-0.465 -0.456,-1.13 -0.456,-2.01 0,-1.95 0.6,-2.92 1.8,-2.92 z m 34.5,3.09 h 1.13 v 1.76 c -0.184,0.339 -0.459,0.608 -0.827,0.809 -0.362,0.201 -0.749,0.302 -1.16,0.302 -0.448,0 -0.807,-0.118 -1.08,-0.353 -0.264,-0.241 -0.396,-0.562 -0.396,-0.964 0,-0.494 0.196,-0.876 0.586,-1.15 0.39,-0.274 0.973,-0.405 1.75,-0.405 z m 59.7,3.09 c -0.0016,3.17e-4 -1.68,0.36 -2.37,0.904 -0.873,0.692 -1.4,1.66 -1.24,2.54 0.255,1.37 0.967,1.87 2.02,2.07 1.67,0.32 2.91,-0.762 4.77,-0.732 0.775,0.0126 1.68,0.434 1.68,0.434 0,0 -0.171,0.35 -1.28,0.329 -0.898,-0.0172 -0.175,0.413 0.0822,0.529 0.717,0.323 1.43,0.545 2.57,0.943 0.906,0.315 1.64,0.629 0.836,-1.02 -0.289,-0.594 -0.463,-1.03 -0.909,-2.01 -0.153,-0.334 -0.256,-0.347 -0.307,0.183 -0.057,0.588 -0.207,0.497 -0.207,0.497 0,0 -0.599,-0.51 -1.07,-0.705 -0.848,-0.348 -1.73,-0.297 -2.66,-0.136 -1.19,0.205 -1.04,0.232 -1.94,0.375 -0.923,0.147 -1.55,0.174 -1.95,-0.328 -0.347,-0.443 -0.294,-0.946 -0.105,-1.48 0.192,-0.54 0.739,-0.789 1.05,-0.871 0.571,-0.148 2.25,-0.282 2.25,-0.282 0,0 -0.413,-0.264 -0.759,-0.636 -0.196,-0.21 -0.473,-0.607 -0.473,-0.607 z"
         fill="#ffffff"
         stroke-width="0.265"
         id="path2"
         style="display:inline"
         sodipodi:nodetypes="ccccccccccsccccccccccssccccccccccccccscscscccccccccccccccscscscssssscscscsssscscscssscccccssccscscccccccccccssccscscccccccccccssccscsccccccccsscscscscccsccsccccccccsscscccccccccsscsccccccccscscccccccccsccccscscscscsccccscccccccsscsccccccccccccccscccccccsscscccscccsccccccccccscsccccccccsscscccscccsccccccccccscsccccccscsccccccssccccccccccccccscccccccccccccccccccccccccccscscccccscscsccccccccccccsscscsccccsscscsccccccccccccccscscccsccscsssccccscssccccccccccccccccccccccccc" />
      <path
         d="m -197,10.9 a 1.96,4.72 76.5 0 0 -4.07,3.02 1.96,4.72 76.5 0 0 5.09,0.774 1.96,4.72 76.5 0 0 4.08,-3.02 1.96,4.72 76.5 0 0 -5.09,-0.773 1.96,4.72 76.5 0 0 -0.004,8.73e-4 z m 0.07,0.611 a 1.12,3.32 76.4 0 1 0.0329,-0.0081 1.12,3.32 76.4 0 1 3.51,0.297 1.12,3.32 76.4 0 1 -2.93,1.88 1.12,3.32 76.4 0 1 -3.51,-0.297 1.12,3.32 76.4 0 1 2.9,-1.87 z"
         fill="#ffcc00"
         stroke-linecap="round"
         stroke-width="1.07"
         id="path4"
         style="display:inline" />
    </g>
  </g>
</svg>
