<svg width="101mm" height="19.1mm" version="1.1" viewBox="0 0 101 19.1" xmlns="http://www.w3.org/2000/svg"><g transform="translate(-1.54 -8.72)"><path transform="matrix(.265 0 0 .265 1.54 8.72)" d="m530 0.00586c-0.386-0.0821-1.19 0.863-2.25 2.24-2.79 3.62-12 10.7-12 10.7 0 0 2.76 0.641 5.43 2.43 2.58 1.73 3.54 3.63 3.54 3.63s3.05-7.19 4.35-12.3c1.21-4.76 1.4-6.56 0.906-6.67zm-121 0.0332c-3.91 0-6.94 1.06-9.11 3.19-2.17 2.13-3.26 5.14-3.26 9.05v3.22h-5.37v5.86h5.37v29.4h7.91v-29.4h7.16v-5.86h-7.16v-3.12c0-3.88 1.89-5.83 5.66-5.83 1.15 0 2.16 0.0862 3.03 0.26l0.195-6.19c-1.56-0.391-3.04-0.586-4.43-0.586zm80.8 0.326c-0.496 0.106-0.304 1.91 0.906 6.67 1.3 5.11 4.35 12.3 4.35 12.3 0-1e-6 0.96-1.9 3.54-3.63 2.67-1.79 5.43-2.43 5.43-2.43s-9.18-7.04-12-10.7c-1.06-1.38-1.87-2.33-2.25-2.25zm-346 0.357v18c-2.24-2.56-5.07-3.84-8.5-3.84-4.28 0-7.65 1.63-10.1 4.88-2.45 3.26-3.68 7.63-3.68 13.1 0 5.82 1.25 10.4 3.74 13.6 2.52 3.26 5.85 4.88 9.99 4.88 3.69 0 6.71-1.46 9.05-4.39l0.455 3.74h8.5v-50zm145 0v50h7.91v-50zm293 0v50h9.44v-50zm-13 0.814c-1.63 0-2.92 0.456-3.87 1.37-0.933 0.911-1.4 2.07-1.4 3.48 0 1.43 0.479 2.6 1.43 3.52 0.977 0.911 2.26 1.37 3.84 1.37s2.85-0.456 3.81-1.37c0.977-0.911 1.46-2.08 1.46-3.52 0-1.41-0.477-2.57-1.43-3.48-0.955-0.911-2.24-1.37-3.84-1.37zm-259 0.586c-1.43 0-2.54 0.402-3.32 1.21-0.76 0.803-1.14 1.81-1.14 3.03 0 1.19 0.379 2.19 1.14 2.99 0.781 0.781 1.89 1.17 3.32 1.17 1.43 0 2.54-0.391 3.32-1.17 0.781-0.803 1.17-1.8 1.17-2.99 0-1.22-0.391-2.22-1.17-3.03-0.781-0.803-1.89-1.21-3.32-1.21zm311 0c-1.43 0-2.54 0.402-3.32 1.21-0.76 0.803-1.14 1.81-1.14 3.03 0 1.19 0.381 2.19 1.14 2.99 0.781 0.781 1.89 1.17 3.32 1.17s2.54-0.391 3.32-1.17c0.781-0.803 1.17-1.8 1.17-2.99 0-1.22-0.391-2.22-1.17-3.03-0.781-0.803-1.89-1.21-3.32-1.21zm-297 4.82v8.56h-5.79v5.86h5.79v20c0 6.71 3.04 10.1 9.12 10.1 1.67 0 3.41-0.251 5.21-0.75v-6.12c-0.933 0.217-1.86 0.326-2.77 0.326-1.37 0-2.32-0.293-2.87-0.879-0.521-0.608-0.781-1.58-0.781-2.93v-19.7h6.22v-5.86h-6.22v-8.56zm348 0v8.56h-5.79v5.86h5.79v20c0 6.71 3.04 10.1 9.12 10.1 1.67 0 3.41-0.251 5.21-0.75v-6.12c-0.933 0.217-1.85 0.326-2.77 0.326-1.37 0-2.32-0.293-2.87-0.879-0.521-0.608-0.781-1.58-0.781-2.93v-19.7h6.22v-5.86h-6.22v-8.56zm95 0v8.56h-5.79v5.86h5.79v20c0 6.71 3.04 10.1 9.12 10.1 1.67 0 3.41-0.251 5.21-0.75v-6.12c-0.933 0.217-1.85 0.326-2.77 0.326-1.37 0-2.32-0.293-2.87-0.879-0.521-0.608-0.781-1.58-0.781-2.93v-19.7h6.22v-5.86h-6.22v-8.56zm-745 7.91c-4.36 0-7.84 1.65-10.4 4.95-2.56 3.3-3.84 7.65-3.84 13.1v0.391c0 5.47 1.3 9.86 3.91 13.2 2.63 3.3 6.05 4.95 10.3 4.95 3.54 0 6.39-1.23 8.56-3.68v1.89c0 2.45-0.695 4.34-2.08 5.66-1.39 1.35-3.33 2.02-5.83 2.02-3.34 0-6.19-1.31-8.53-3.94l-4.17 5.73c1.26 1.63 3.11 2.95 5.57 3.97 2.45 1.04 4.97 1.56 7.55 1.56 3.41 0 6.38-0.595 8.92-1.79 2.54-1.19 4.5-2.93 5.89-5.21 1.41-2.28 2.12-4.96 2.12-8.04v-34h-8.53l-0.391 3.32c-2.15-2.65-5.15-3.97-9.02-3.97zm40.3 0c-3.34 0-6.28 0.749-8.82 2.25-2.52 1.5-4.45 3.61-5.79 6.35-1.35 2.73-2.02 5.85-2.02 9.34v0.424c0 5.6 1.51 10 4.53 13.3 3.04 3.26 7.1 4.88 12.2 4.88 5.08 0 9.13-1.63 12.1-4.88 3.02-3.28 4.52-7.62 4.52-13l-0.0645-2.41c-0.347-4.99-2.03-8.94-5.04-11.8-2.99-2.91-6.87-4.36-11.6-4.36zm37.7 0c-3.34 0-6.28 0.749-8.82 2.25-2.52 1.5-4.45 3.61-5.79 6.35-1.35 2.73-2.02 5.85-2.02 9.34v0.424c0 5.6 1.51 10 4.53 13.3 3.04 3.26 7.1 4.88 12.2 4.88 5.08 0 9.13-1.63 12.1-4.88 3.02-3.28 4.52-7.62 4.52-13l-0.0645-2.41c-0.347-4.99-2.03-8.94-5.04-11.8-2.99-2.91-6.87-4.36-11.6-4.36zm89.6 0c-4.3 0-7.71 1.62-10.2 4.85-2.52 3.23-3.78 7.61-3.78 13.1 0 5.79 1.27 10.3 3.81 13.6 2.54 3.28 5.91 4.92 10.1 4.92 3.69 0 6.68-1.22 8.98-3.65v16.5h7.91v-48.8h-7.03l-0.455 3.48c-2.3-2.76-5.41-4.13-9.34-4.13zm76.5 0c-2.71 0-5.18 0.477-7.39 1.43-2.19 0.955-3.93 2.28-5.21 3.97-1.28 1.67-1.92 3.47-1.92 5.4h7.91c0-1.39 0.574-2.53 1.72-3.42 1.15-0.911 2.63-1.37 4.43-1.37 2.08 0 3.63 0.553 4.65 1.66 1.02 1.09 1.53 2.54 1.53 4.36v2.31h-4.85c-5.19 0-9.18 1.01-12 3.03-2.78 2-4.17 4.87-4.17 8.62 0 2.97 1.12 5.47 3.35 7.49 2.24 2.02 5.12 3.03 8.66 3.03 3.65 0 6.73-1.31 9.25-3.94 0.26 1.52 0.563 2.61 0.91 3.29h8.07v-0.553c-0.89-1.89-1.34-4.42-1.34-7.58v-15.9c-0.0651-3.75-1.32-6.66-3.78-8.72-2.45-2.08-5.74-3.12-9.86-3.12zm166 0c-3.21 0-6.05 0.749-8.53 2.25-2.47 1.48-4.39 3.6-5.76 6.38-1.37 2.76-2.05 5.86-2.05 9.31l2e-3 0.391c0 5.51 1.49 9.93 4.46 13.2 2.99 3.3 6.98 4.95 11.9 4.95 3.26 0 6.12-0.749 8.59-2.25 2.5-1.5 4.4-3.61 5.73-6.35 1.35-2.73 2.02-5.84 2.02-9.31l-0.0332-1.86c-0.239-5.06-1.85-9.11-4.82-12.2-2.95-3.06-6.8-4.59-11.6-4.59zm38.8 0c-3.39 0-6.03 1.53-7.94 4.59l-0.195-3.94h-7.55v35.2h7.91v-24.1c1.26-2.78 3.7-4.17 7.32-4.17 1.11 0 2.18 0.0862 3.22 0.26l0.0332-7.42c-0.738-0.304-1.67-0.455-2.8-0.455zm39.1 0c-3.21 0-6.08 0.758-8.59 2.28-2.5 1.5-4.43 3.65-5.79 6.45-1.37 2.78-2.05 5.94-2.05 9.47v0.912c0 5.27 1.62 9.49 4.85 12.7 3.26 3.17 7.46 4.75 12.6 4.75 2.93 0 5.6-0.553 8.01-1.66 2.41-1.13 4.32-2.69 5.73-4.69l-4.62-5.18c-2.04 2.63-4.87 3.94-8.5 3.94-2.34 0-4.29-0.693-5.83-2.08-1.52-1.39-2.43-3.23-2.73-5.54h22.4v-3.84c0-5.58-1.39-9.89-4.17-12.9-2.76-3.04-6.54-4.56-11.4-4.56zm141 0c-4.23 0-7.65 1.57-10.3 4.72l-0.229-4.07h-7.46v35.2h7.91v-25.1c1.56-2.89 3.94-4.33 7.13-4.33 2.19 0 3.77 0.544 4.72 1.63 0.977 1.06 1.46 2.71 1.46 4.95v22.8h7.91v-23.3c-0.13-8.4-3.86-12.6-11.2-12.6zm56 0c-3.02 0-5.75 0.77-8.2 2.31s-4.36 3.7-5.73 6.48c-1.35 2.76-2.02 5.89-2.02 9.41v0.977c0 5.25 1.55 9.46 4.66 12.6 3.13 3.15 7.19 4.72 12.2 4.72 2.93 0 5.57-0.576 7.91-1.73 2.37-1.17 4.25-2.81 5.66-4.91l-4.27-4.07c-2.28 2.93-5.23 4.39-8.85 4.39-2.58 0-4.73-0.846-6.45-2.54-1.69-1.69-2.66-3.99-2.9-6.9h23v-3.19c0-5.6-1.31-9.93-3.94-13-2.6-3.06-6.3-4.59-11.1-4.59zm39 0c-4.23 0-7.65 1.57-10.3 4.72l-0.229-4.07h-7.46v35.2h7.91v-25.1c1.56-2.89 3.94-4.33 7.13-4.33 2.19 0 3.77 0.544 4.72 1.63 0.977 1.06 1.46 2.71 1.46 4.95v22.8h7.91v-23.3c-0.13-8.4-3.86-12.6-11.2-12.6zm-531 0.65v22.8c0 4.23 0.977 7.47 2.93 9.7 1.97 2.24 4.87 3.35 8.69 3.35 4.28 0 7.57-1.37 9.9-4.1l0.195 3.45h7.45v-35.2h-7.91v25.3c-1.35 2.76-3.94 4.13-7.78 4.13-3.71 0-5.57-2.24-5.57-6.71v-22.7zm90.8 0v35.2h7.91v-35.2zm35 0 12.4 35.1-1.14 3.03c-0.586 1.71-1.39 2.93-2.41 3.65-0.998 0.738-2.5 1.11-4.49 1.11l-1.5-0.0977v6.12c1.39 0.391 2.66 0.586 3.81 0.586 5.14 0 8.79-2.96 10.9-8.89l14-40.6h-8.43l-7.16 23.9-7.46-23.9zm186 0 11.9 35.2h8.98l11.9-35.2h-9.83l-6.54 23.7-6.54-23.7zm37.4 0v35.2h9.44v-35.2zm52.4 0v35.2h7.91v-35.2zm-425 5.7c3.08 0 5.38 1.28 6.9 3.84v16c-1.52 2.67-3.84 4-6.96 4-2.52 0-4.49-1.02-5.93-3.06-1.41-2.06-2.12-4.89-2.12-8.5 0-4.17 0.716-7.26 2.15-9.28 1.45-2.02 3.44-3.03 5.96-3.03zm240 0c2.63 0 4.7 1.04 6.22 3.12 1.54 2.08 2.31 4.9 2.31 8.46 0 4.01-0.749 7.06-2.25 9.15-1.48 2.08-3.55 3.12-6.22 3.12-2.67 0-4.75-1.02-6.25-3.06-1.5-2.06-2.25-4.91-2.25-8.53 0-4.08 0.758-7.14 2.28-9.18 1.52-2.06 3.57-3.09 6.15-3.09zm275 0c2.19 0 3.91 0.684 5.14 2.05 1.24 1.35 1.94 3.34 2.12 5.99v0.586h-15.1c0.369-2.71 1.22-4.83 2.54-6.35 1.35-1.52 3.1-2.28 5.27-2.28zm-645 1.27c2.32 0 4.12 0.9 5.4 2.7s1.92 4.34 1.92 7.62c0 3.84-0.641 6.64-1.92 8.4-1.28 1.74-3.06 2.6-5.34 2.6-2.34 0-4.15-0.879-5.4-2.64-1.26-1.78-1.89-4.34-1.89-7.68 0-3.75 0.628-6.52 1.89-8.3 1.26-1.8 3.04-2.7 5.34-2.7zm37.7 0c2.32 0 4.12 0.9 5.4 2.7 1.28 1.8 1.92 4.34 1.92 7.62 0 3.84-0.641 6.64-1.92 8.4-1.28 1.74-3.06 2.6-5.34 2.6-2.34 0-4.15-0.879-5.4-2.64-1.26-1.78-1.89-4.34-1.89-7.68 0-3.75 0.628-6.52 1.89-8.3 1.26-1.8 3.04-2.7 5.34-2.7zm410 0c2 0 3.54 0.574 4.62 1.72 1.09 1.13 1.65 2.74 1.69 4.82v0.748h-13.1c0.325-2.34 1.06-4.15 2.21-5.4 1.17-1.26 2.69-1.89 4.56-1.89zm-485 0.0312c2.8 0 4.83 1.07 6.09 3.22v14.8c-1.24 2.15-3.29 3.22-6.15 3.22-2.24 0-3.99-0.902-5.27-2.7-1.28-1.82-1.92-4.33-1.92-7.52 0-3.67 0.641-6.42 1.92-8.27 1.3-1.84 3.08-2.77 5.34-2.77zm113 0c2.89 0 4.92 1.23 6.09 3.68v13.9c-1.19 2.45-3.24 3.68-6.15 3.68-2.19 0-3.86-0.879-5.01-2.64s-1.72-4.29-1.72-7.59c0-7.36 2.27-11 6.8-11zm130 11.7h4.26v6.64c-0.694 1.28-1.74 2.3-3.12 3.06-1.37 0.76-2.83 1.14-4.39 1.14-1.69 0-3.05-0.446-4.07-1.34-0.998-0.911-1.5-2.13-1.5-3.64 0-1.87 0.739-3.31 2.21-4.33 1.48-1.02 3.68-1.53 6.61-1.53zm227 10.4s-6.37 1.36-8.96 3.42c-3.3 2.62-5.29 6.26-4.67 9.6 0.965 5.16 3.65 7.06 7.62 7.82 6.3 1.21 11-2.88 18-2.77 2.93 0.0474 6.35 1.64 6.35 1.64s-0.645 1.32-4.83 1.24c-3.39-0.065-0.662 1.56 0.311 2 2.71 1.22 5.4 2.06 9.72 3.56 3.42 1.19 6.2 2.38 3.16-3.86-1.09-2.24-1.75-3.9-3.44-7.58-0.577-1.26-0.968-1.31-1.16 0.691-0.215 2.22-0.783 1.88-0.783 1.88s-2.26-1.93-4.06-2.67c-3.21-1.32-6.54-1.12-10-0.516-4.48 0.776-3.91 0.876-7.33 1.42-3.49 0.554-5.87 0.659-7.35-1.24-1.31-1.67-1.11-3.58-0.398-5.58 0.726-2.04 2.79-2.98 3.98-3.29 2.16-0.56 8.5-1.07 8.5-1.07s-1.56-0.998-2.87-2.4c-0.74-0.793-1.79-2.29-1.79-2.29z" fill="#fff"/><path d="m5.64 10.6a1.96 4.72 76.5 0 0-4.07 3.02 1.96 4.72 76.5 0 0 5.09 0.774 1.96 4.72 76.5 0 0 4.08-3.02 1.96 4.72 76.5 0 0-5.09-0.773 1.96 4.72 76.5 0 0-0.00356 8.73e-4zm0.07 0.611a1.12 3.32 76.4 0 1 0.0329-0.0081 1.12 3.32 76.4 0 1 3.51 0.297 1.12 3.32 76.4 0 1-2.93 1.88 1.12 3.32 76.4 0 1-3.51-0.297 1.12 3.32 76.4 0 1 2.9-1.87z" fill="#fc0" stroke-linecap="round" stroke-width="1.07"/></g></svg>
