<svg width="400" height="73.3" version="1.1" viewBox="0 0 106 19.4" xmlns="http://www.w3.org/2000/svg"><g transform="translate(99.7 -8.72)"><g transform="translate(-.13 -.344)"><path d="m-60.4 9.06c-0.102-0.0217-0.315 0.228-0.596 0.594-0.738 0.959-3.17 2.82-3.17 2.82s0.73 0.17 1.44 0.643c0.681 0.457 0.935 0.961 0.935 0.961s0.807-1.9 1.15-3.26c0.32-1.26 0.371-1.74 0.24-1.76zm-32 0.0088c-1.03 0-1.84 0.282-2.41 0.844-0.574 0.563-0.861 1.36-0.861 2.39v0.853h-1.42v1.55h1.42v7.77h2.09v-7.77h1.89v-1.55h-1.89v-0.827c0-1.03 0.5-1.54 1.5-1.54 0.304 0 0.571 0.0228 0.801 0.0687l0.0517-1.64c-0.413-0.103-0.804-0.155-1.17-0.155zm21.4 0.0863c-0.131 0.0279-0.0805 0.506 0.24 1.76 0.344 1.35 1.15 3.25 1.15 3.25s0.254-0.503 0.935-0.96c0.707-0.474 1.44-0.643 1.44-0.643s-2.43-1.86-3.17-2.82c-0.281-0.365-0.494-0.616-0.596-0.594zm-91.5 0.0946v4.75c-0.591-0.678-1.34-1.02-2.25-1.02-1.13 0-2.02 0.431-2.68 1.29-0.649 0.861-0.973 2.02-0.973 3.47 0 1.54 0.33 2.74 0.991 3.61 0.666 0.861 1.55 1.29 2.64 1.29 0.976 0 1.77-0.388 2.39-1.16l0.12 0.99h2.25v-13.2zm38.4 0v13.2h2.09v-13.2zm77.6 0v13.2h2.5v-13.2zm-3.43 0.215c-0.431 0-0.772 0.121-1.02 0.362-0.247 0.241-0.371 0.548-0.371 0.921 0 0.379 0.127 0.689 0.379 0.93 0.258 0.241 0.597 0.362 1.02 0.362 0.419 0 0.755-0.121 1.01-0.362 0.258-0.241 0.388-0.551 0.388-0.93 0-0.373-0.126-0.68-0.379-0.921s-0.592-0.362-1.02-0.362zm-68.7 0.155c-0.379 0-0.672 0.106-0.878 0.319-0.201 0.212-0.301 0.479-0.301 0.801 0 0.316 0.1 0.58 0.301 0.792 0.207 0.207 0.5 0.31 0.878 0.31s0.672-0.103 0.878-0.31c0.207-0.212 0.31-0.476 0.31-0.792 0-0.322-0.103-0.589-0.31-0.801-0.207-0.212-0.5-0.319-0.878-0.319zm82.3 0c-0.379 0-0.672 0.106-0.878 0.319-0.201 0.212-0.301 0.479-0.301 0.801 0 0.316 0.1 0.58 0.301 0.792 0.207 0.207 0.5 0.31 0.878 0.31 0.379 0 0.672-0.103 0.878-0.31 0.207-0.212 0.31-0.476 0.31-0.792 0-0.322-0.103-0.589-0.31-0.801-0.207-0.212-0.5-0.319-0.878-0.319zm-78.5 1.27v2.26h-1.53v1.55h1.53v5.28c0 1.77 0.804 2.66 2.41 2.66 0.442 0 0.902-0.0664 1.38-0.198v-1.62c-0.247 0.0574-0.491 0.0863-0.732 0.0863-0.362 0-0.615-0.0775-0.758-0.233-0.138-0.161-0.207-0.419-0.207-0.775v-5.2h1.65v-1.55h-1.65v-2.26zm92.1 0v2.26h-1.53v1.55h1.53v5.28c0 1.77 0.804 2.66 2.41 2.66 0.442 0 0.902-0.0664 1.38-0.198v-1.62c-0.247 0.0574-0.491 0.0863-0.732 0.0863-0.362 0-0.614-0.0775-0.758-0.233-0.138-0.161-0.207-0.419-0.207-0.775v-5.2h1.64v-1.55h-1.64v-2.26zm25.1 0v2.26h-1.53v1.55h1.53v5.28c0 1.77 0.804 2.66 2.41 2.66 0.442 0 0.901-0.0664 1.38-0.198v-1.62c-0.247 0.0574-0.491 0.0863-0.732 0.0863-0.362 0-0.614-0.0775-0.758-0.233-0.138-0.161-0.207-0.419-0.207-0.775v-5.2h1.64v-1.55h-1.64v-2.26zm-197 2.09c-1.15 0-2.07 0.436-2.76 1.31-0.678 0.873-1.02 2.02-1.02 3.45v0.103c0 1.45 0.344 2.61 1.03 3.49 0.695 0.873 1.6 1.31 2.72 1.31 0.936 0 1.69-0.325 2.27-0.974v0.5c0 0.649-0.184 1.15-0.551 1.5-0.367 0.356-0.881 0.534-1.54 0.534-0.884 0-1.64-0.347-2.26-1.04l-1.1 1.52c0.333 0.431 0.824 0.781 1.47 1.05 0.649 0.276 1.31 0.413 2 0.413 0.901 0 1.69-0.158 2.36-0.473 0.672-0.316 1.19-0.775 1.56-1.38 0.373-0.603 0.56-1.31 0.56-2.13v-9.01h-2.26l-0.103 0.878c-0.568-0.701-1.36-1.05-2.39-1.05zm10.7 0c-0.884 0-1.66 0.198-2.33 0.594-0.666 0.396-1.18 0.956-1.53 1.68-0.356 0.723-0.534 1.55-0.534 2.47v0.112c0 1.48 0.399 2.65 1.2 3.51 0.804 0.861 1.88 1.29 3.22 1.29s2.41-0.431 3.21-1.29c0.798-0.867 1.2-2.02 1.2-3.45l-0.0171-0.637c-0.0919-1.32-0.537-2.37-1.33-3.14-0.792-0.769-1.82-1.15-3.07-1.15zm9.97 0c-0.884 0-1.66 0.198-2.33 0.594-0.666 0.396-1.18 0.956-1.53 1.68-0.356 0.723-0.534 1.55-0.534 2.47v0.112c0 1.48 0.399 2.65 1.2 3.51 0.804 0.861 1.88 1.29 3.22 1.29s2.41-0.431 3.21-1.29c0.798-0.867 1.2-2.02 1.2-3.45l-0.017-0.637c-0.0919-1.32-0.537-2.37-1.33-3.14-0.792-0.769-1.82-1.15-3.07-1.15zm23.7 0c-1.14 0-2.04 0.428-2.7 1.28-0.666 0.856-0.999 2.01-0.999 3.47 0 1.53 0.336 2.74 1.01 3.61 0.672 0.867 1.56 1.3 2.68 1.3 0.976 0 1.77-0.322 2.38-0.965v4.38h2.09v-12.9h-1.86l-0.12 0.921c-0.609-0.729-1.43-1.09-2.47-1.09zm20.2 0c-0.718 0-1.37 0.126-1.95 0.379-0.58 0.253-1.04 0.603-1.38 1.05-0.339 0.442-0.508 0.919-0.508 1.43h2.09c0-0.367 0.152-0.669 0.456-0.904 0.304-0.241 0.695-0.362 1.17-0.362 0.551 0 0.962 0.146 1.23 0.439 0.27 0.287 0.405 0.672 0.405 1.15v0.612h-1.28c-1.37 0-2.43 0.267-3.17 0.801-0.735 0.528-1.1 1.29-1.1 2.28 0 0.787 0.296 1.45 0.887 1.98 0.591 0.534 1.35 0.801 2.29 0.801 0.965 0 1.78-0.348 2.45-1.04 0.0689 0.402 0.149 0.692 0.241 0.87h2.14v-0.146c-0.235-0.5-0.353-1.17-0.353-2.01v-4.2c-0.0172-0.993-0.35-1.76-0.999-2.31-0.649-0.551-1.52-0.827-2.61-0.827zm43.8 0c-0.85 0-1.6 0.198-2.26 0.594-0.655 0.39-1.16 0.953-1.52 1.69-0.362 0.729-0.543 1.55-0.543 2.46v0.103c0 1.46 0.394 2.63 1.18 3.51 0.792 0.873 1.85 1.31 3.16 1.31 0.861 0 1.62-0.198 2.27-0.594 0.66-0.396 1.17-0.956 1.52-1.68 0.356-0.723 0.534-1.54 0.534-2.46l-0.0088-0.491c-0.0632-1.34-0.488-2.41-1.27-3.22-0.781-0.81-1.8-1.21-3.06-1.21zm10.3 0c-0.896 0-1.6 0.405-2.1 1.21l-0.0517-1.04h-2v9.32h2.09v-6.37c0.333-0.735 0.979-1.1 1.94-1.1 0.293 0 0.577 0.0228 0.853 0.0687l0.0088-1.96c-0.195-0.0804-0.442-0.12-0.741-0.12zm10.3 0c-0.85 0-1.61 0.201-2.27 0.603-0.66 0.396-1.17 0.965-1.53 1.71-0.362 0.735-0.543 1.57-0.543 2.51v0.241c0 1.4 0.428 2.51 1.28 3.35 0.861 0.838 1.97 1.26 3.34 1.26 0.775 0 1.48-0.146 2.12-0.439 0.637-0.299 1.14-0.712 1.52-1.24l-1.22-1.37c-0.54 0.695-1.29 1.04-2.25 1.04-0.62 0-1.13-0.183-1.54-0.551-0.402-0.367-0.643-0.856-0.723-1.46h5.93v-1.02c0-1.48-0.367-2.62-1.1-3.42-0.729-0.804-1.73-1.21-3.01-1.21zm37.4 0c-1.12 0-2.02 0.416-2.71 1.25l-0.06-1.08h-1.97v9.32h2.09v-6.63c0.413-0.764 1.04-1.15 1.89-1.15 0.58 0 0.996 0.144 1.25 0.431 0.258 0.281 0.388 0.718 0.388 1.31v6.04h2.09v-6.16c-0.0344-2.22-1.02-3.33-2.96-3.33zm14.8 0c-0.798 0-1.52 0.204-2.17 0.611-0.649 0.408-1.15 0.979-1.52 1.71-0.356 0.729-0.534 1.56-0.534 2.49v0.258c0 1.39 0.41 2.5 1.23 3.34 0.827 0.833 1.9 1.25 3.23 1.25 0.775 0 1.47-0.153 2.09-0.457 0.626-0.31 1.13-0.743 1.5-1.3l-1.13-1.08c-0.603 0.775-1.38 1.16-2.34 1.16-0.683 0-1.25-0.224-1.71-0.672-0.448-0.448-0.704-1.06-0.767-1.83h6.09v-0.844c0-1.48-0.348-2.63-1.04-3.44-0.689-0.81-1.67-1.21-2.94-1.21zm10.3 0c-1.12 0-2.02 0.416-2.71 1.25l-0.0599-1.08h-1.97v9.32h2.09v-6.63c0.413-0.764 1.04-1.15 1.89-1.15 0.58 0 0.996 0.144 1.25 0.431 0.258 0.281 0.388 0.718 0.388 1.31v6.04h2.09v-6.16c-0.0345-2.22-1.02-3.33-2.96-3.33zm-141 0.172v6.04c0 1.12 0.258 1.98 0.775 2.57 0.522 0.591 1.29 0.887 2.3 0.887 1.13 0 2-0.362 2.62-1.09l0.0517 0.913h1.97v-9.32h-2.09v6.69c-0.356 0.729-1.04 1.09-2.06 1.09-0.982 0-1.47-0.592-1.47-1.77v-6.01zm24 0v9.32h2.09v-9.32zm9.27 0 3.27 9.28-0.302 0.801c-0.155 0.454-0.367 0.775-0.637 0.965-0.264 0.195-0.66 0.292-1.19 0.292l-0.396-0.0258v1.62c0.367 0.103 0.703 0.155 1.01 0.155 1.36 0 2.33-0.784 2.89-2.35l3.7-10.7h-2.23l-1.89 6.32-1.97-6.32zm49.3 0 3.14 9.32h2.38l3.14-9.32h-2.6l-1.73 6.28-1.73-6.28zm9.89 0v9.32h2.5v-9.32zm13.9 0v9.32h2.09v-9.32zm-112 1.51c0.815 0 1.42 0.338 1.83 1.02v4.24c-0.402 0.706-1.02 1.06-1.84 1.06-0.666 0-1.19-0.27-1.57-0.809-0.373-0.545-0.56-1.29-0.56-2.25 0-1.1 0.189-1.92 0.568-2.45 0.385-0.534 0.91-0.801 1.58-0.801zm63.6 0c0.695 0 1.24 0.276 1.65 0.827 0.408 0.551 0.611 1.3 0.611 2.24 0 1.06-0.198 1.87-0.594 2.42-0.39 0.551-0.939 0.827-1.64 0.827-0.706 0-1.26-0.27-1.65-0.809-0.396-0.545-0.594-1.3-0.594-2.26 0-1.08 0.201-1.89 0.603-2.43 0.402-0.545 0.945-0.818 1.63-0.818zm72.8 0c0.58 0 1.03 0.181 1.36 0.543 0.327 0.356 0.514 0.884 0.56 1.58v0.155h-3.99c0.0976-0.718 0.322-1.28 0.672-1.68 0.356-0.402 0.821-0.603 1.4-0.603zm-171 0.336c0.614 0 1.09 0.238 1.43 0.715s0.508 1.15 0.508 2.02c0 1.02-0.17 1.76-0.508 2.22-0.339 0.459-0.809 0.689-1.41 0.689-0.62 0-1.1-0.233-1.43-0.698-0.333-0.471-0.499-1.15-0.499-2.03 0-0.993 0.166-1.73 0.499-2.2 0.333-0.477 0.804-0.715 1.41-0.715zm9.97 0c0.614 0 1.09 0.238 1.43 0.715s0.508 1.15 0.508 2.02c0 1.02-0.17 1.76-0.508 2.22-0.339 0.459-0.809 0.689-1.41 0.689-0.62 0-1.1-0.233-1.43-0.698-0.333-0.471-0.499-1.15-0.499-2.03 0-0.993 0.166-1.73 0.499-2.2 0.333-0.477 0.804-0.715 1.41-0.715zm108 0c0.528 0 0.936 0.152 1.22 0.456 0.287 0.299 0.437 0.724 0.448 1.27v0.198h-3.46c0.0861-0.62 0.281-1.1 0.585-1.43 0.31-0.333 0.712-0.499 1.21-0.499zm-128 0.0083c0.741 0 1.28 0.284 1.61 0.853v3.92c-0.327 0.568-0.87 0.853-1.63 0.853-0.591 0-1.06-0.239-1.4-0.715-0.339-0.482-0.508-1.15-0.508-1.99 0-0.97 0.17-1.7 0.508-2.19 0.345-0.488 0.815-0.732 1.41-0.732zm29.9 0c0.764 0 1.3 0.325 1.61 0.974v3.68c-0.316 0.649-0.858 0.974-1.63 0.974-0.58 0-1.02-0.233-1.33-0.698-0.304-0.465-0.456-1.13-0.456-2.01 0-1.95 0.6-2.92 1.8-2.92zm34.5 3.09h1.13v1.76c-0.184 0.339-0.459 0.608-0.827 0.809-0.362 0.201-0.749 0.302-1.16 0.302-0.448 0-0.807-0.118-1.08-0.353-0.264-0.241-0.396-0.562-0.396-0.964 0-0.494 0.196-0.876 0.586-1.15s0.973-0.405 1.75-0.405zm59.7 3.09c-0.0016 3.17e-4 -1.68 0.36-2.37 0.904-0.873 0.692-1.4 1.66-1.24 2.54 0.255 1.37 0.967 1.87 2.02 2.07 1.67 0.32 2.91-0.762 4.77-0.732 0.775 0.0126 1.68 0.434 1.68 0.434s-0.171 0.35-1.28 0.329c-0.898-0.0172-0.175 0.413 0.0822 0.529 0.717 0.323 1.43 0.545 2.57 0.943 0.906 0.315 1.64 0.629 0.836-1.02-0.289-0.594-0.463-1.03-0.909-2.01-0.153-0.334-0.256-0.347-0.307 0.183-0.057 0.588-0.207 0.497-0.207 0.497s-0.599-0.51-1.07-0.705c-0.848-0.348-1.73-0.297-2.66-0.136-1.19 0.205-1.04 0.232-1.94 0.375-0.923 0.147-1.55 0.174-1.95-0.328-0.347-0.443-0.294-0.946-0.105-1.48 0.192-0.54 0.739-0.789 1.05-0.871 0.571-0.148 2.25-0.282 2.25-0.282s-0.413-0.264-0.759-0.636c-0.196-0.21-0.473-0.607-0.473-0.607z" fill="#fff" stroke-width=".265"/><path d="m-197 10.9a1.96 4.72 76.5 0 0-4.07 3.02 1.96 4.72 76.5 0 0 5.09 0.774 1.96 4.72 76.5 0 0 4.08-3.02 1.96 4.72 76.5 0 0-5.09-0.773 1.96 4.72 76.5 0 0-4e-3 8.73e-4zm0.07 0.611a1.12 3.32 76.4 0 1 0.0329-0.0081 1.12 3.32 76.4 0 1 3.51 0.297 1.12 3.32 76.4 0 1-2.93 1.88 1.12 3.32 76.4 0 1-3.51-0.297 1.12 3.32 76.4 0 1 2.9-1.87z" fill="#fc0" stroke-linecap="round" stroke-width="1.07"/></g></g></svg>
