<svg width="211" height="211" version="1.1" viewBox="0 0 55.8 55.8" xmlns="http://www.w3.org/2000/svg"><path d="m14 0.356c-0.0908 0.00333-0.161 0.0195-0.21 0.0496-0.755 0.467-0.362 1.3 0.853 1.81 3.61 1.51 6.27 4.28 7.72 6.99 0.458 0.856 0.655 1.37 0.773 2.04-0.256 0-1.79 0.858-2.58 1.54-1.59 1.36-2.09 2.39-1.62 3.64 0.235 0.624 1.19 1.06 2.15 0.984 0.78-0.107 3.72-0.192 6.85-0.211 3.12 0.0192 6.07 0.105 6.85 0.211 0.953 0.0789 1.91-0.359 2.15-0.984 0.47-1.25-0.0353-2.28-1.62-3.64-0.796-0.681-2.33-1.54-2.58-1.54 0.117-0.668 0.315-1.18 0.773-2.04 1.45-2.7 4.11-5.48 7.72-6.99 1.22-0.508 1.61-1.34 0.853-1.81-0.0487-0.0301-0.119-0.0466-0.21-0.0496-0.636-0.0233-2.28 0.599-4.54 1.73-1.85 0.926-4.72 4.3-5.68 6.69l-0.891 2.04s-1.88-0.0759-2.81-0.0739c-0.938-0.0024-2.81 0.0739-2.81 0.0739l-0.891-2.04c-0.963-2.39-3.83-5.77-5.68-6.69-2.26-1.13-3.9-1.75-4.54-1.73zm-5.57 13.8c-0.404 0.0176-0.668 0.345-0.66 0.886 0.0144 0.911 4.02 5.69 5.88 7.01l1.65 1.17s-0.308 2.43-0.356 3.84c-0.0919 2.67 0.102 4.56 0.0093 4.71-0.0931 0.151-1.02 0.0865-3 0.645-1.5 0.425-5.04 2.03-5.18 3.07-0.154 1.09 0.407 1.02 3.51-0.415 1.44-0.665 3.09-1.26 3.67-1.32l1.05-0.114s0.15 3.61 0.243 5.32c0.111 2.07 0.16 5.2 1.65 7.8l-1.9 0.6c-1.82 0.573-6 2.87-7.31 4.02-0.717 0.627-0.816 1.72-0.176 1.93 0.243 0.083 0.917-0.204 1.5-0.638 1.92-1.43 8.01-4.31 9.01-4.31 0.463 0.535 0.974 1.86 2.33 3.13 1.05 0.987 2.33 1.95 3.39 2.51 1.9 1.02 3.13 1.34 4.19 1.49v-8.86c-0.172-0.198-0.32-0.45-0.444-0.759-0.169-0.384-0.254-0.847-0.254-1.39v-5.27c0-0.519 0.0792-0.976 0.237-1.37 0.125-0.312 0.28-0.57 0.461-0.776v-18.7c-11.4-0.0339-10.7 0.566-12 3.26l-1.64-1.34c-0.902-0.739-2.38-2.35-3.29-3.57-0.908-1.23-1.86-2.32-2.12-2.43-0.161-0.0666-0.311-0.0953-0.445-0.0894zm39 0c-0.134-0.0058-0.285 0.0228-0.445 0.0894-0.26 0.108-1.22 1.2-2.12 2.43-0.908 1.23-2.39 2.84-3.29 3.57l-1.64 1.34c-1.28-2.69-0.608-3.29-12-3.26l5.15e-4 18.7c0.0479-0.0545 0.0965-0.108 0.148-0.155 0.214-0.192 0.508-0.344 0.881-0.457 0.373-0.124 0.745-0.203 1.12-0.237 0.429-0.0226 0.824-0.0341 1.19-0.0341 0.508 0 0.914 0.0173 1.22 0.0512 0.305 0.0226 0.643 0.0902 1.02 0.203 0.406 0.124 0.728 0.288 0.965 0.491 0.237 0.203 0.44 0.497 0.61 0.881 0.169 0.384 0.254 0.852 0.254 1.41v5.27c0 0.519-0.0844 0.976-0.254 1.37-0.158 0.395-0.361 0.7-0.61 0.914-0.226 0.192-0.536 0.35-0.931 0.474-0.384 0.124-0.751 0.198-1.1 0.22-0.316 0.0339-0.706 0.0506-1.17 0.0506-0.497 0-0.903-0.0168-1.22-0.0506-0.316-0.0339-0.66-0.101-1.03-0.203-0.384-0.113-0.694-0.271-0.931-0.474-0.0515-0.0466-0.101-0.0994-0.148-0.155v8.86c1.07-0.151 2.3-0.476 4.19-1.49 1.06-0.566 2.34-1.53 3.39-2.51 1.35-1.27 1.87-2.6 2.33-3.13 1 0 7.09 2.88 9.01 4.31 0.582 0.434 1.26 0.721 1.5 0.638 0.64-0.219 0.541-1.31-0.176-1.93-1.31-1.15-5.49-3.45-7.31-4.02l-1.9-0.6c1.49-2.6 1.54-5.73 1.65-7.8 0.0929-1.7 0.243-5.32 0.243-5.32l1.05 0.114c0.577 0.0626 2.23 0.658 3.67 1.32 3.11 1.43 3.67 1.5 3.51 0.415-0.147-1.04-3.68-2.64-5.18-3.07-1.97-0.559-2.9-0.495-3-0.645-0.0934-0.151 0.101-2.04 0.0088-4.71-0.0484-1.41-0.356-3.84-0.356-3.84l1.65-1.17c1.85-1.32 5.86-6.1 5.88-7.01 0.0085-0.541-0.256-0.868-0.659-0.886zm-24.2 8.2c0.508 0 0.914 0.0168 1.22 0.0506 0.305 0.0226 0.643 0.0902 1.02 0.203 0.406 0.124 0.728 0.288 0.965 0.491 0.237 0.203 0.44 0.497 0.609 0.881 0.169 0.384 0.254 0.852 0.254 1.41v5.27c0 0.519-0.0849 0.976-0.254 1.37-0.158 0.395-0.361 0.7-0.609 0.915-0.226 0.192-0.536 0.35-0.931 0.474-0.384 0.124-0.751 0.198-1.1 0.22-0.316 0.0339-0.706 0.0512-1.17 0.0512-0.497 0-0.903-0.0173-1.22-0.0512-0.316-0.0339-0.66-0.101-1.03-0.203-0.384-0.113-0.695-0.271-0.932-0.474-0.237-0.214-0.435-0.52-0.593-0.915-0.169-0.384-0.254-0.847-0.254-1.39v-5.27c0-0.519 0.0792-0.976 0.237-1.37 0.158-0.395 0.361-0.705 0.609-0.931 0.214-0.192 0.508-0.344 0.881-0.457 0.373-0.124 0.745-0.203 1.12-0.237 0.429-0.0226 0.824-0.0341 1.19-0.0341zm10.1 0h2v11h-2.47v-8.4l-3 1.66v-2.08zm-10.1 1.59c-0.485 0-0.835 0.0341-1.05 0.102-0.203 0.0565-0.339 0.169-0.407 0.338-0.0677 0.169-0.101 0.446-0.101 0.83v5.6c0 0.384 0.0336 0.661 0.101 0.83 0.0677 0.169 0.203 0.288 0.407 0.356 0.214 0.0565 0.564 0.0848 1.05 0.0848 0.474 0 0.813-0.0283 1.02-0.0848 0.203-0.0677 0.339-0.186 0.407-0.356 0.0677-0.169 0.101-0.446 0.101-0.83v-5.6c0-0.384-0.0336-0.661-0.101-0.83-0.0677-0.169-0.203-0.282-0.407-0.338-0.203-0.0677-0.542-0.102-1.02-0.102zm-0.63 12.2h2v11h-2.47v-8.4l-3 1.66v-2.08zm8.66 1.59c-0.485 0-0.836 0.0336-1.05 0.101-0.203 0.0565-0.338 0.169-0.406 0.338-0.0677 0.169-0.102 0.446-0.102 0.83v5.6c0 0.384 0.0341 0.661 0.102 0.83 0.0677 0.169 0.203 0.288 0.406 0.356 0.214 0.0565 0.565 0.0848 1.05 0.0848 0.474 0 0.813-0.0283 1.02-0.0848 0.203-0.0677 0.338-0.186 0.406-0.356 0.0677-0.169 0.102-0.446 0.102-0.83v-5.6c0-0.384-0.0341-0.661-0.102-0.83-0.0677-0.169-0.203-0.282-0.406-0.338-0.203-0.0677-0.542-0.101-1.02-0.101z" display="none" stroke-width=".353"/><path d="m14 0.367c-0.0908 0.00333-0.161 0.0195-0.21 0.0496-0.755 0.467-0.362 1.3 0.853 1.81 3.61 1.51 6.27 4.28 7.72 6.99 0.458 0.856 0.655 1.37 0.773 2.04-0.256 0-1.79 0.858-2.58 1.54-1.59 1.36-2.09 2.39-1.62 3.64 0.235 0.624 1.19 1.06 2.15 0.984 0.78-0.107 3.72-0.192 6.85-0.211 3.12 0.0192 6.07 0.105 6.85 0.211 0.953 0.0789 1.91-0.359 2.15-0.984 0.47-1.25-0.0353-2.28-1.62-3.64-0.796-0.681-2.33-1.54-2.58-1.54 0.117-0.668 0.315-1.18 0.773-2.04 1.45-2.7 4.11-5.48 7.72-6.99 1.22-0.508 1.61-1.34 0.853-1.81-0.0487-0.0301-0.119-0.0466-0.21-0.0496-0.636-0.0233-2.28 0.599-4.54 1.73-1.85 0.926-4.72 4.3-5.68 6.69l-0.891 2.04s-1.88-0.0759-2.81-0.0739c-0.938-0.0024-2.81 0.0739-2.81 0.0739l-0.891-2.04c-0.963-2.39-3.83-5.77-5.68-6.69-2.26-1.13-3.9-1.75-4.54-1.73zm-5.57 13.8c-0.404 0.0176-0.668 0.345-0.66 0.886 0.0144 0.911 4.02 5.69 5.88 7.01l1.65 1.17s-0.308 2.43-0.356 3.84c-0.0919 2.67 0.102 4.56 0.0093 4.71-0.0931 0.151-1.02 0.0865-3 0.645-1.5 0.425-5.04 2.03-5.18 3.07-0.154 1.09 0.407 1.02 3.51-0.415 1.44-0.665 3.09-1.26 3.67-1.32l1.05-0.114s0.15 3.61 0.243 5.32c0.111 2.07 0.16 5.2 1.65 7.8l-1.9 0.6c-1.82 0.573-6 2.87-7.31 4.02-0.717 0.627-0.816 1.72-0.176 1.93 0.243 0.083 0.917-0.204 1.5-0.638 1.92-1.43 8.01-4.31 9.01-4.31 0.463 0.535 0.974 1.86 2.33 3.13 1.05 0.987 2.33 1.95 3.39 2.51 1.9 1.02 3.13 1.34 4.19 1.49v-8.86c-0.172-0.198-0.32-0.45-0.444-0.759-0.169-0.384-0.254-0.847-0.254-1.39v-5.27c0-0.519 0.0792-0.976 0.237-1.37 0.125-0.312 0.28-0.57 0.461-0.776l0.0145-18.7c-11.4-0.0339-10.7 0.566-12 3.26l-1.64-1.34c-0.902-0.739-2.38-2.35-3.29-3.57-0.908-1.23-1.86-2.32-2.12-2.43-0.161-0.0666-0.311-0.0953-0.445-0.0894zm39 0c-0.134-0.0058-0.285 0.0228-0.445 0.0894-0.26 0.108-1.22 1.2-2.12 2.43-0.908 1.23-2.39 2.84-3.29 3.57l-1.64 1.34c-1.28-2.69-0.599-3.29-12-3.26l-0.0078 18.7c0.0479-0.0545 0.0965-0.108 0.148-0.155 0.214-0.192 0.508-0.344 0.881-0.457 0.373-0.124 0.745-0.203 1.12-0.237 0.429-0.0226 0.824-0.0341 1.19-0.0341 0.508 0 0.914 0.0173 1.22 0.0512 0.305 0.0226 0.643 0.0902 1.02 0.203 0.406 0.124 0.728 0.288 0.965 0.491 0.237 0.203 0.44 0.497 0.61 0.881 0.169 0.384 0.254 0.852 0.254 1.41v5.27c0 0.519-0.0844 0.976-0.254 1.37-0.158 0.395-0.361 0.7-0.61 0.914-0.226 0.192-0.536 0.35-0.931 0.474-0.384 0.124-0.751 0.198-1.1 0.22-0.316 0.0339-0.706 0.0506-1.17 0.0506-0.497 0-0.903-0.0168-1.22-0.0506-0.316-0.0339-0.66-0.101-1.03-0.203-0.384-0.113-0.694-0.271-0.931-0.474-0.0515-0.0466-0.101-0.0994-0.148-0.155l-0.0031 8.86c1.07-0.151 2.3-0.476 4.2-1.49 1.06-0.566 2.34-1.53 3.39-2.51 1.35-1.27 1.87-2.6 2.33-3.13 1 0 7.09 2.88 9.01 4.31 0.582 0.434 1.26 0.721 1.5 0.638 0.64-0.219 0.541-1.31-0.176-1.93-1.31-1.15-5.49-3.45-7.31-4.02l-1.9-0.6c1.49-2.6 1.54-5.73 1.65-7.8 0.0929-1.7 0.243-5.32 0.243-5.32l1.05 0.114c0.577 0.0626 2.23 0.658 3.67 1.32 3.11 1.43 3.67 1.5 3.51 0.415-0.147-1.04-3.68-2.64-5.18-3.07-1.97-0.559-2.9-0.495-3-0.645-0.0934-0.151 0.101-2.04 0.0088-4.71-0.0484-1.41-0.356-3.84-0.356-3.84l1.65-1.17c1.85-1.32 5.86-6.1 5.88-7.01 0.0085-0.541-0.256-0.868-0.659-0.886zm-24.2 8.2c0.508 0 0.914 0.0168 1.22 0.0506 0.305 0.0226 0.643 0.0902 1.02 0.203 0.406 0.124 0.728 0.288 0.965 0.491 0.237 0.203 0.44 0.497 0.609 0.881 0.169 0.384 0.254 0.852 0.254 1.41v5.27c0 0.519-0.0849 0.976-0.254 1.37-0.158 0.395-0.361 0.7-0.609 0.915-0.226 0.192-0.536 0.35-0.931 0.474-0.384 0.124-0.751 0.198-1.1 0.22-0.316 0.0339-0.706 0.0512-1.17 0.0512-0.497 0-0.903-0.0173-1.22-0.0512-0.316-0.0339-0.66-0.101-1.03-0.203-0.384-0.113-0.695-0.271-0.932-0.474-0.237-0.214-0.435-0.52-0.593-0.915-0.169-0.384-0.254-0.847-0.254-1.39v-5.27c0-0.519 0.0792-0.976 0.237-1.37 0.158-0.395 0.361-0.705 0.609-0.931 0.214-0.192 0.508-0.344 0.881-0.457 0.373-0.124 0.745-0.203 1.12-0.237 0.429-0.0226 0.824-0.0341 1.19-0.0341zm10.1 0h2v11h-2.47v-8.4l-3 1.66v-2.08zm-10.1 1.59c-0.485 0-0.835 0.0341-1.05 0.102-0.203 0.0565-0.339 0.169-0.407 0.338-0.0677 0.169-0.101 0.446-0.101 0.83v5.6c0 0.384 0.0336 0.661 0.101 0.83 0.0677 0.169 0.203 0.288 0.407 0.356 0.214 0.0565 0.564 0.0848 1.05 0.0848 0.474 0 0.813-0.0283 1.02-0.0848 0.203-0.0677 0.339-0.186 0.407-0.356 0.0677-0.169 0.101-0.446 0.101-0.83v-5.6c0-0.384-0.0336-0.661-0.101-0.83-0.0677-0.169-0.203-0.282-0.407-0.338-0.203-0.0677-0.542-0.102-1.02-0.102zm-0.63 12.2h2v11h-2.47v-8.4l-3 1.66v-2.08zm8.66 1.59c-0.485 0-0.836 0.0336-1.05 0.101-0.203 0.0565-0.338 0.169-0.406 0.338-0.0677 0.169-0.102 0.446-0.102 0.83v5.6c0 0.384 0.0341 0.661 0.102 0.83 0.0677 0.169 0.203 0.288 0.406 0.356 0.214 0.0565 0.565 0.0848 1.05 0.0848 0.474 0 0.813-0.0283 1.02-0.0848 0.203-0.0677 0.338-0.186 0.406-0.356 0.0677-0.169 0.102-0.446 0.102-0.83v-5.6c0-0.384-0.0341-0.661-0.102-0.83-0.0677-0.169-0.203-0.282-0.406-0.338-0.203-0.0677-0.542-0.101-1.02-0.101z" stroke-width=".353"/></svg>
